<?xml version="1.0" encoding="utf-8"?>
<!-- Generator: Adobe Illustrator 25.2.1, SVG Export Plug-In . SVG Version: 6.00 Build 0)  -->
<svg version="1.1" id="Livello_1" xmlns="http://www.w3.org/2000/svg" xmlns:xlink="http://www.w3.org/1999/xlink" x="0px" y="0px"
	 viewBox="0 0 94 127.2" style="enable-background:new 0 0 94 127.2;" xml:space="preserve">
<style type="text/css">
	.st0{fill:#FFFFFF;fill-opacity:0;}
	.st1{fill:#E8CDDA;stroke:#000000;stroke-miterlimit:10;}
</style>
<g>
	<rect y="0" class="st0" width="94" height="127.2"/>
	<path class="st1" d="M15.1,87.6L15.1,87.6c1.2,8.4,5.8,15.8,7.9,22.8l0,0l3.5,9.9h41l3.7-9.9l0,0c2.3-6.9,7.3-14.4,8.5-22.8l0,0
		c1.9-11.1-5.4-31.5-6.7-43.7C71,25,71.2,4.8,48,4.2l0,0C24.8,4.8,24.6,24.5,22.5,43.3c-1.4,12.3-7.9,27.3-7.5,39.9
		C14.9,84.7,14.9,86.2,15.1,87.6z"/>
</g>
</svg>
