<?xml version="1.0" encoding="utf-8"?>
<!-- Generator: Adobe Illustrator 25.2.1, SVG Export Plug-In . SVG Version: 6.00 Build 0)  -->
<svg version="1.1" id="Livello_1" xmlns="http://www.w3.org/2000/svg" xmlns:xlink="http://www.w3.org/1999/xlink" x="0px" y="0px"
	 viewBox="0 0 94 127.2" style="enable-background:new 0 0 94 127.2;" xml:space="preserve">
<style type="text/css">
	.st0{fill:#FFFFFF;fill-opacity:0;}
	.st1{fill:#E8CDDA;stroke:#000000;stroke-miterlimit:10;}
</style>
<g>
	<rect y="0" class="st0" width="94" height="127.2"/>
	<path class="st1" d="M70.1,100.3L8.7,117.4c-1.9-11.1-0.5-24.3-2.2-34.7c-3-18.6-8-37.6,13.8-44.3l0,0
		c22.3-5.5,27.5,13.9,34.5,31.5C58.3,78.3,65.9,90.2,70.1,100.3z"/>
	<path class="st1" d="M79.9,87.4L79.9,87.4c-1.2,8.3-6.2,15.8-8.5,22.8l0,0l-3.8,9.9h-41l-3.5-9.9l0,0c-2.2-6.9-6.8-14.4-7.9-22.8
		C15,85.9,14.9,84.4,15,83c-0.1-2,0-3.9,0.2-5.9h64.5C80.3,80.5,80.3,84,79.9,87.4z"/>
</g>
</svg>
