<svg xmlns="http://www.w3.org/2000/svg" viewBox="0 0 75.38 116.23"><defs><style>.cls-1{fill:#fff;stroke:#000;stroke-miterlimit:10;}</style></defs><g id="Livello_2" data-name="Livello 2"><g id="Livello_1-2" data-name="Livello 1"><path class="cls-1" d="M74.4,54.6,16.69,83.38c-4-10.58-5.1-23.85-8.72-33.73C1.45,31.87-7.12,14.18,13.32,3.26h0c21.05-9.77,29.9,8.38,40.21,24.31C58.49,35.21,68.3,45.43,74.4,54.6Z"/><path class="cls-1" d="M74.57,83.07h0c-1.24,8.35-6.16,15.84-8.5,22.76h0l-3.72,9.9h-41l-3.47-9.9-.05,0C15.55,98.92,11,91.43,9.8,83.07a27.65,27.65,0,0,1-.07-4.37A40.18,40.18,0,0,1,10,72.84H74.45A36.39,36.39,0,0,1,74.57,83.07Z"/></g></g></svg>