<svg xmlns="http://www.w3.org/2000/svg" viewBox="0 0 575.64 99.25"><defs><style>.cls-1{fill:#e60000;}</style></defs><g id="Livello_2" data-name="Livello 2"><g id="svg2"><path class="cls-1" d="M530.81,99.25h-1A1,1,0,0,1,530.81,99.25Z"/><path class="cls-1" d="M460.12,7.78c-3.3-.18-5.08.09-4.72.73.67,1.18,3.85,1.3,7.5.28C464.88,8.24,464.28,8,460.12,7.78Z"/><path class="cls-1" d="M451.19,7.36c-1.49,0-1.53.1-.28,1,1.84,1.29,1.95,1.29,2,.07C452.92,7.86,452.15,7.39,451.19,7.36Z"/><path class="cls-1" d="M444.41,8.09c-.36.54,0,1,.9,1s1.58-.39,1.6-.94C447,6.89,445.26,6.83,444.41,8.09Z"/><path class="cls-1" d="M439.58,7.63C437.52,8,437.09,8.32,438,9c1.65,1.13,2,1.14,3.81.07C444,7.79,442.92,7.12,439.58,7.63Z"/><path class="cls-1" d="M431,7.07a1.19,1.19,0,0,0-.55,1.57,2.57,2.57,0,0,0,4,.07C435.19,7.51,432.48,6.21,431,7.07Z"/><path class="cls-1" d="M384.16,6.93c-5.86-.14-6.29,0-3.28.81a15,15,0,0,0,5.62.53c1.19-.24,2.44.06,2.79.67.88,1.54,1.5,1.4,1.56-.36C390.9,7.38,389.54,7.05,384.16,6.93Z"/><path class="cls-1" d="M411.42,7.07c-10.82-.19-17.91.07-17.78.65.26,1.21,4.13,1.52,6.4.53,1.08-.47,1.87-.29,2.16.51.34,1,.48,1,.58,0,.08-.79.61-1,1.35-.48a8.84,8.84,0,0,0,2.69,1.11,2.3,2.3,0,0,1,1.73,1.17,1.89,1.89,0,0,0,1.72,1c1,0,1.17-.32.52-1.17s1.17-1.17,7.73-1c4.77.11,9.18-.27,9.79-.84C429.12,7.69,424.42,7.31,411.42,7.07Z"/><path class="cls-1" d="M481.7,14.5a1,1,0,1,0,1,1A1,1,0,0,0,481.7,14.5Z"/><path class="cls-1" d="M415.26,10c-.86,0-1.3.4-1,1s.1,1-.48,1a1.11,1.11,0,0,0-1.1,1.12c0,.65.85.4,2-.58C417.21,10.39,417.28,10.07,415.26,10Z"/><path class="cls-1" d="M362.28,10c-.82,0-1.52.39-1.54.94s.64,1,1.46,1.06,1.52-.39,1.54-.94S363.1,10,362.28,10Z"/><path class="cls-1" d="M340.76,10.19a1,1,0,1,0,1,1A1,1,0,0,0,340.76,10.19Z"/><path class="cls-1" d="M371.16,6.73c-6.9.44-54.12.62-59.8.22-8.46-.59-28.38-.39-29.12.29-.43.39-.07.74.78.78a2.37,2.37,0,0,1,2,1.45c.46,1.35,2.28,1.29,10.71-.36a3.64,3.64,0,0,1,2.72.74,1.94,1.94,0,0,0,2.71-.11c.82-.63,3-1,4.78-.77a25.21,25.21,0,0,0,6.34-.21,14.31,14.31,0,0,1,7.34,1.1c4.88,1.94,6.37,2.16,5.64.86S329,8.93,338.79,9.16c13.6.31,21,.12,21.71-.56.38-.35,4.21-.51,8.52-.35,5,.19,7.84-.09,7.87-.8S375,6.48,371.16,6.73Z"/><path class="cls-1" d="M444.27,11.85c-3.18.48-4.32,2.51-2.63,4.7,1.45,1.9,3.8,1.69,5.27-.47C448.66,13.52,447.32,11.38,444.27,11.85Z"/><path class="cls-1" d="M363.67,13.06a1,1,0,1,0,1,1A1,1,0,0,0,363.67,13.06Z"/><path class="cls-1" d="M312.7,11.14a1,1,0,1,0,1,1A1,1,0,0,0,312.7,11.14Z"/><path class="cls-1" d="M495.45,25c-.58,0-.8.42-.48,1,.74,1.31,1.45,1.33,1.5.05A1,1,0,0,0,495.45,25Z"/><path class="cls-1" d="M410.15,13.79c-1.23-1.11-1.38-1-.91.34.32.93.08,1.65-.54,1.62s-1.13.64-1.16,1.46.83,1.53,1.94,1.58C411.9,18.88,412.32,15.73,410.15,13.79Z"/><path class="cls-1" d="M294.1,13.44c-.74-1.31-1.45-1.34-1.5-.06a1,1,0,0,0,1,1C294.21,14.44,294.42,14,294.1,13.44Z"/><path class="cls-1" d="M305.59,13.87c-1.1,0-2,.37-2,.92s.86,1,2,1.08,2-.38,2-.93S306.69,13.91,305.59,13.87Z"/><path class="cls-1" d="M346.6,15.88a1.25,1.25,0,0,0-.52,1.67c.4.7,1,.71,1.7,0C349.11,16.33,348.17,15,346.6,15.88Z"/><path class="cls-1" d="M324.71,14.16c-1.07-.72-3.41,1.74-2.54,2.68a3.29,3.29,0,0,0,2,.73C325.62,17.63,326.06,15.06,324.71,14.16Z"/><path class="cls-1" d="M267.2,12.68c-.66-.72-2.61.62-2.66,1.83,0,.66.55.6,1.53-.15S267.44,12.94,267.2,12.68Z"/><path class="cls-1" d="M258.42,12.57c-.3-.32-.88.21-1.29,1.18-.6,1.41-.49,1.52.54.58C258.38,13.68,258.71,12.88,258.42,12.57Z"/><path class="cls-1" d="M557.09,28c-1.21,0-6.53.81-8.88,0s-11.93-.26-17.34-.33-14.46-.27-20.13-.44-14.65-.38-19.94-.46-12.95-.34-17-.56c-6.9-.36-7.24-.51-5.2-2.11s2.36-1.55,3.57-.26,1.36,1,1.28-.79c0-1.24.52-2.27,1.27-2.29s1.43.89,1.49,2,.71,1.77,1.44,1.41,1.37-.15,1.4.47,1.18.83,3.1.32a34.62,34.62,0,0,1,6.82-.82c3.65,0,4.46-1,3.68-4.56-.39-1.75,2.49-2.79,4.3-1.56,1.17.78.9,1.09-1,1.14s-2.2.35-1,1.15a2.14,2.14,0,0,1,.95,2.48c-.38.82.23,1.37,1.5,1.33s1.83-.6,1.3-1.53-.08-1.5,1.18-1.54a3.35,3.35,0,0,0,2.77-1.57,3.62,3.62,0,0,1,3-1.59c1.42,0,2,.49,1.53,1.46s.06,1.5,1.18,1.47c3.31-.09,6.21-1.34,5.33-2.3-.51-.54-1.77-.36-3.06.44-2,1.22-2,1.17-.39-.48s1.5-2.24,0-4.17c-2.12-2.65-5.64-2.19-5.49.72.08,1.44-.89,1.91-4.13,2-5,.14-5-2,.07-3.08l3.29-.73-3.95-1c-2.17-.57-4.41-.81-5-.53s-3,.15-5.4-.28c-3.84-.69-4.33-.55-4.25,1.22.08,1.49-.67,1.95-3,1.79a11.88,11.88,0,0,0-4.91.69c-2.54,1.25-7.87-2.49-6.8-4.78.72-1.51,2-1.68,9.4-1.25,4.72.27,25.1.21,45.3-.15s37.34-.4,38.1-.08c2.26.94,4,16.34,1.85,18.69"/><path class="cls-1" d="M516,20.6c-.79,0-1.43.49-1.4,1,.07,1.28,1,1.25,2.06-.06C517.07,21,516.77,20.58,516,20.6Z"/><path class="cls-1" d="M524.62,14.44c-1.46,0-2.25.25-1.79.57a3.73,3.73,0,0,0,2.64,0C526.55,14.67,526.21,14.44,524.62,14.44Z"/><path class="cls-1" d="M533.66,19.11c.75,0,1.36-.48,1.33-1a1.27,1.27,0,0,0-1.43-1c-.75,0-1.34.48-1.31,1S532.91,19.13,533.66,19.11Z"/><path class="cls-1" d="M534.77,14.08c-1.49,0-2.72.52-2.69,1.07s1.29,1,2.8.93,2.72-.53,2.69-1.08S536.28,14,534.77,14.08Z"/><path class="cls-1" d="M252.52,14.87a1,1,0,1,0,1,1A1,1,0,0,0,252.52,14.87Z"/><path class="cls-1" d="M214.75,13.25c-.61-.67-1.46-.89-1.88-.5s-.14,1.13.64,1.65C215.33,15.63,216.21,14.82,214.75,13.25Z"/><path class="cls-1" d="M473.16,28.43a42.38,42.38,0,0,1-6.52-1c-3.5-.78-4.22-.67-4.27.64-.05,1.15,1.19,1.72,4.67,2.13,6.47.77,7.5.69,8-.62C475.28,29,474.46,28.45,473.16,28.43Z"/><path class="cls-1" d="M460.83,28.7a1.13,1.13,0,0,0-1.5-.53c-.5.29-1.8-.09-2.9-.83-1.59-1.08-2.4-1.12-4-.19-1.12.64-4.18,1.12-6.8,1.06s-4.05.2-3.06.63c1.57.7,7.82,1.08,15.56.95C460.06,29.76,461.18,29.31,460.83,28.7Z"/><path class="cls-1" d="M435.15,25.74c-.71,0-1.39.86-1.51,2-.2,1.74,0,1.82,1.26.62C436.75,26.6,436.82,25.81,435.15,25.74Z"/><path class="cls-1" d="M428.33,26.67a3.14,3.14,0,0,0-1.81,1.69c-.28.74.08,1.13.84.9a3.14,3.14,0,0,0,1.82-1.68C429.45,26.84,429.09,26.45,428.33,26.67Z"/><path class="cls-1" d="M423.78,22.91c-1.24-1-2.11-1.14-2.56-.47-.84,1.26-3,0-2.71-1.64.47-2.95,0-4.81-1.18-4.43a1.54,1.54,0,0,0-.95,1.8,32.84,32.84,0,0,1,.49,3.4,18,18,0,0,0,.3,2.26,20.38,20.38,0,0,0,4.31.41C425.33,24.39,425.52,24.28,423.78,22.91Z"/><path class="cls-1" d="M222.07,14.07c-.86.29-1.58,1-1.6,1.57s.69.62,2-.1C224.69,14.24,224.45,13.26,222.07,14.07Z"/><path class="cls-1" d="M411.93,27.4c-2.53,1-3.56,1-3.81.13-.38-1.3-2.76-.33-2.82,1.15,0,1.3,5.68,1.4,6.55.12a1.74,1.74,0,0,1,2.07-.45c.79.33,1.41,0,1.44-.83C415.4,26.3,414.93,26.28,411.93,27.4Z"/><path class="cls-1" d="M396.84,27.5c-1.93-.07-3.77.26-4.09.75s1,.94,2.91,1,3.76-.27,4.09-.75S398.76,27.57,396.84,27.5Z"/><path class="cls-1" d="M217.21,11.54c-.93,0-1.25.66-.93,2.07a2.72,2.72,0,0,1-1,2.95c-1,.56-1,.85-.21.89,1.25.06,3.4-2.9,3.47-4.79C218.6,12.07,218,11.57,217.21,11.54Z"/><path class="cls-1" d="M238.64,11.35c-1.4-.06-3,3.83-2.47,6.11.22,1,.79,1.57,1.26,1.3a1.62,1.62,0,0,0,.38-1.89,5.12,5.12,0,0,1,.71-3.45C239.35,12,239.39,11.37,238.64,11.35Z"/><path class="cls-1" d="M254.49,23.94a2.18,2.18,0,0,0-1.65.94c-.36.53-.21,1,.34,1a2.19,2.19,0,0,0,1.66-.94C255.2,24.42,255,24,254.49,23.94Z"/><path class="cls-1" d="M314.09,17.48c-.39-.42-1.12-.14-1.63.62-.76,1.13-1.18,1.13-2.45,0-.84-.75-1.57-1.2-1.63-1s-.37,1.83-.69,3.6c-.46,2.54-.23,3.25,1.09,3.3s1.54-.53,1.22-2c-.25-1.11-.16-1.82.2-1.58C311.22,21.14,314.88,18.33,314.09,17.48Z"/><path class="cls-1" d="M384.9,21.25c-2.24,1.35-2.5,1.29-3.76-.82a21.51,21.51,0,0,1-2-4.45c-.89-3.24-3.07-4.76-5.94-4.16-1.64.35-2.56,1.24-2.61,2.52s-.75,1.95-2.45,1.89a5.35,5.35,0,0,0-3.7,1.38c-1.18,1.32-1.51,1.3-3.09-.25-1.25-1.21-2.8-1.6-5.25-1.29-1.92.23-3.65.12-3.85-.26s-.27-.18-.15.46c.33,1.76-4.46,5.52-5.85,4.59-.77-.52-1-.38-.53.37.86,1.52-1.7,1.46-3.12-.08-.79-.85-1.95-.75-4.4.35-2.61,1.18-3.48,1.23-4.05.22s-1-1-2-.1c-2.11,2-.51,2.43,9.22,2.71,5.13.15,10,.71,10.73,1.24a3.29,3.29,0,0,0,3.28.06c1-.5,9.39-.72,18.58-.48,14.76.38,16.74.24,17.08-1.24C391.7,21.2,387.78,19.51,384.9,21.25Z"/><path class="cls-1" d="M372.69,21.93c-.87,2-1.42,1.78-1.33-.64,0-1.13.5-1.77,1-1.43A1.75,1.75,0,0,1,372.69,21.93Z"/><path class="cls-1" d="M325,26.38c-.28.43-2.16.83-4.17.88s-3.41-.27-3.09-.74c1.12-1.67-2.83-.93-4.88.92l-2.11,1.89,2.53-.61a12.72,12.72,0,0,1,3.52-.45c.54.09,2.68.36,4.75.6s4,.74,4.37,1.11c1.36,1.46,4.34-.49,4.43-2.88C330.36,25.7,325.83,25.1,325,26.38Z"/><path class="cls-1" d="M305.17,20.25c-1.78-1.92-5.77-1.27-5.86,1-.06,1.59-4.68,1.78-6.87.28-.77-.53-2.58-.49-4.33.1-2.55.85-3.14.74-3.91-.77-1.21-2.37-3.29-2.34-5.72.09-1.74,1.72-2.06,1.77-2.54.36s-1-1.41-2.61-.62c-1.13.55-2.05.65-2,.22s-.4-.18-.91.56a1.52,1.52,0,0,1-2,.6,1.24,1.24,0,0,1-.5-1.65c.34-.5.16-.92-.39-.94a2.67,2.67,0,0,0-1.87,1.36c-.47.77-2.78,1.56-5.14,1.76-3.17.26-4.1,0-3.53-.82s.28-.81-.85,0a3.32,3.32,0,0,1-5.16-1.54,2.84,2.84,0,0,0-2.52-1.52c-1.11,0-2-.53-2-1.08s-.64-1-1.46-1.05A1.55,1.55,0,0,1,243.51,15c0-.87-.51-1.41-1.21-1.2-1.19.37-1.35,1.59-.79,6.18.19,1.62-.66,2.15-4.81,3l-5,1,8.3.41c5.3.26,8.09,0,7.72-.61a3.31,3.31,0,0,0-2.52-1.1A1.77,1.77,0,0,1,243.28,21c.08-2.12,1.43-1.82,5.62,1.26,3.13,2.3,4.37,2.62,8.71,2.28,2.79-.23,11.82-.34,20.07-.26,21.72.22,26.42,0,27.8-1.27C306.42,22.16,306.35,21.52,305.17,20.25Z"/><path class="cls-1" d="M226.21,27.88c-1.17.69-.75.94,1.71,1.05,1.79.07,3.26-.32,3.28-.87C231.25,26.8,228.22,26.68,226.21,27.88Z"/><path class="cls-1" d="M211.68,27.36c-1.46,1.12-3.88-.66-2.89-2.13.61-.91.3-.94-1.37-.13s-2,1.33-1,2.56c.85,1.07,3.14,1.54,8,1.61,3.73.06,7-.2,7.26-.59C222.38,27.65,212.94,26.41,211.68,27.36Z"/><path class="cls-1" d="M202.64,13.56c-.48-.33-1.15,0-1.48.83-.41.95-.12,1.26.86.92C203.72,14.73,203.85,14.37,202.64,13.56Z"/><path class="cls-1" d="M202.64,13.56c-.48-.33-1.15,0-1.48.83-.41.95-.12,1.26.86.92C203.72,14.73,203.85,14.37,202.64,13.56Z"/><path class="cls-1" d="M258.31,6.54C246,6.3,235.49,6.32,235,6.57s-9.35.39-19.77.3c-12.16-.12-19.09.2-19.35.87s-.82.7-1.52.11c-1.43-1.22-12.47-2.9-19.55-3A42.05,42.05,0,0,0,163,5.9c-2.1.41-3.8.21-4.64-.54s-1.52-.9-2.06-.1a1.68,1.68,0,0,1-2,.55c-.69-.29-3-.19-5.16.22a99.65,99.65,0,0,1-11.92,1c-4.41.13-10.16.39-12.78.57s-4.75-.09-4.73-.59-.86-1.19-1.94-1.52c-1.34-.4-2-.1-2,.92s-.62,1.27-1.61.84a16.77,16.77,0,0,0-4.54-.78c-1.73-.06-2.7-.52-2.32-1.08,1-1.46-.57-1.23-2.47.36-.91.77-4.09,1.52-7,1.68-5.86.31-8.57,2-8.75,5.53-.08,1.74-.78,2.29-3.12,2.47-3.31.24-5.82,1.72-5.1,3a3.52,3.52,0,0,1-.26,2.49c-.54,1.27-1.49,1.51-4,1-1.82-.37-3.61-.22-4,.33a2.45,2.45,0,0,1-2.54.43c-1-.31-2.14-.15-2.47.34-.68,1-2.44.14-2.39-1.19,0-1,4-2.36,5.7-2,.67.15,1-.74.72-2.28-.46-3-2.12-3.45-2.23-.6-.07,1.88-2.38,2.53-6.67,1.86-.6-.09-2.35.92-3.89,2.24-3.6,3.09-7,3-9-.33-.85-1.41-2.32-2.6-3.27-2.66-1.62-.09-1.62-.17,0-1.32,2-1.43,2.28-5.6.28-4.92-.72.25-1.29-.05-1.27-.66.05-1.37,1.6-1.36,4,0,1.3.76,2.14.66,3.07-.37,1.5-1.68,3.58-.77,2.14.93a4.88,4.88,0,0,0-1,2.62,14.91,14.91,0,0,1-.84,3.72c-.66,1.81-.44,2.24,1.19,2.3,2.55.1,3.89-1.8,2.12-3-1-.71-.88-.93.66-1a28.17,28.17,0,0,1,3.75.19c1,.14,1.76-.23,1.78-.82s-.71-1.09-1.63-1.12c-2.48-.09-1.22-.79,2.22-1.22,1.66-.21,4.33-.66,5.94-1,2.09-.45,2.71-.32,2.17.48-.41.62-.32,1.14.2,1.16s1.25-1,1.61-2.21c.55-1.9,1.38-2.24,5.44-2.25,3.57,0,4.35.22,3,.9-2.51,1.33-1.38,3.35,2.09,3.72,2.32.26,3-.09,3-1.55a2.68,2.68,0,0,0-1.16-2.43c-.67-.3,0-.54,1.53-.52s2.76-.37,2.78-.85-8.42-1-18.72-1.12C35.09,7.26,27.34,6.66,23.48,4.05c-3.63-2.46-9.47-4-14-4H8.6C6.21.05,4.32.56,3.51,1.57A2.56,2.56,0,0,1,1,2.61C0,2.23-.23,2.71.26,4.5a6.77,6.77,0,0,0,1.58,3c.51.35,1,4.33,1.18,8.84.28,9.22.69,9.76,7.8,10.26a17.48,17.48,0,0,1,4.81.74c.23.24,2.53-.09,5.12-.74s11-1.14,18.72-1.09c13.37.09,28.14-.14,41-.63,3.28-.12,6.3-.78,6.77-1.47.66-1,1.08-1,2,0,.77.83,4.38,1.41,10.32,1.63,5,.19,9.39.63,9.71,1,.86.93,22.55,1.46,24,.59a14.58,14.58,0,0,1,5.24-.74c8.56,0,19.07-.83,20.07-1.59,1.28-1,4.45,1.36,4.41,3.27,0,.84.72.48,1.88-.91,1.37-1.65,2.47-2.09,4-1.56,1.13.41,2.29.38,2.58,0s6.75-.69,14.36-.57,15.43-.09,17.37-.48c3.44-.68,3.46-.7.6-.91l-2.94-.21,3-2.88a16,16,0,0,1,4.82-3.39,2.52,2.52,0,0,0,1.9-2c0-.81,1.31-2.56,2.85-3.88,2.4-2.06,3.46-2.3,7.53-1.71,2.61.39,5,.28,5.37-.24.9-1.35,3.57-1.06,3.22.35-.17.65.53,1.39,1.55,1.66s1.62.05,1.22-.65,0-1.1.84-1.06A2.26,2.26,0,0,1,235,10.46c.27.76.52.56.6-.48.15-1.79.48-1.84,10.15-1.74,4.11,0,4.48.24,4.18,2.28-.2,1.43.22,2.26,1.17,2.3a1.56,1.56,0,0,0,1.54-1.56c0-1.18.73-1.47,2.5-1.06,1.33.31,2.64.06,2.9-.54.62-1.46,5.39-1.64,7.7-.29,1.22.72,2,.74,2.48.09s2.78-.65,5.92-.16c4.28.67,5.39.53,5.93-.75C280.69,7.12,278.57,6.93,258.31,6.54Z"/><path class="cls-1" d="M57.18,9.78a2,2,0,0,1,0,1.92c-.35.79-.57.54-.58-.63S56.86,9.44,57.18,9.78Z"/><path class="cls-1" d="M35.48,11.7c.55,0,1,.23,1,.47s-.48.71-1,1-1,.1-1-.48A1,1,0,0,1,35.48,11.7Z"/><path class="cls-1" d="M43.41,18c-.54,0-.77.87-.52,2,.45,2.05-.39,2.42-4.17,1.87a3,3,0,0,0-2.73,1c-.67,1-1.31.82-2.93-.76-2-1.92-2.15-1.93-3.41-.34a4,4,0,0,1-2.47,1.64c-1.82-.07-1.2-3.05.74-3.6,3.76-1.06,8.64-3.61,9.16-4.78a2.84,2.84,0,0,1,2.68-1.08c2.08.15,2.08.17.11.93-1.82.7-1.75.81.65,1S45.73,18.09,43.41,18Z"/><path class="cls-1" d="M203.61,16a3.49,3.49,0,0,0-2.68.86,1.64,1.64,0,0,1-1.94.37c-1.31-.56-3.22,2.28-2.25,3.33.28.29.52,0,.55-.63a1.32,1.32,0,0,1,1.48-1.11,1.49,1.49,0,0,1,1.24,1.8c-.29,2.53-4.93,2.45-5.49-.1-.43-1.91-.47-1.91-1.94,0s-5.85,2.55-6.86.76a1.17,1.17,0,0,0-1.56-.49,1.09,1.09,0,0,0-.45,1.47c.71,1.26-5.86.49-6.73-.79-.45-.66-.72-.63-.75.08-.1,1.89-7.09.45-9.1-1.88-2.48-2.86-4.6-2.79-5.87.21-.88,2.07-1.93,3.13-2.15,2.17-.42-1.84.09-8.75.65-8.73.41,0,.73.55.7,1.19s.24.91.57.6,2.62.6,5.08,2c6.31,3.66,12.07,3.7,17.71.13,3.67-2.33,4.34-3.22,4-5.37S187.77,9.53,189,10a1.6,1.6,0,0,1,.94,2.05c-.33.77-.1,1.42.51,1.44s1.05,1.41,1,3.08l-.11,3,2.2-1.91c1.42-1.22,2-2.64,1.74-4-.47-2.16.93-2.91,1.54-.82.52,1.77,3.86.29,4.56-2,.76-2.53,3.39-2.49,3.29,0a11.4,11.4,0,0,0,.48,3.52C205.49,15.64,205.06,16.09,203.61,16Z"/><path class="cls-1" d="M202.64,13.56c-.48-.33-1.15,0-1.48.83-.41.95-.12,1.26.86.92C203.72,14.73,203.85,14.37,202.64,13.56Z"/><path class="cls-1" d="M542.93,13.3h-1A1,1,0,0,1,542.93,13.3Z"/><path class="cls-1" d="M285.18,4.93c-7-.22-7.52-.08-7.49,1.86,0,1.69.14,1.76.57.35.57-1.9.84-1.93,7.59-.56,3.35.68,5,.62,5.79-.22S291,5.12,285.18,4.93Z"/><path class="cls-1" d="M230.55,6.61a1,1,0,0,0-1,1c0,.58.42.8,1,.48C231.81,7.36,231.83,6.64,230.55,6.61Z"/><path class="cls-1" d="M323.41,12.11a1,1,0,0,0-1,1c0,.58.42.8,1,.49C324.67,12.86,324.69,12.14,323.41,12.11Z"/><path class="cls-1" d="M225.29,13.4a1,1,0,0,0-.07,2,1,1,0,0,0,1-1A1,1,0,0,0,225.29,13.4Z"/><path class="cls-1" d="M111.8,11.13c-.75-1.31-1.45-1.33-1.5-.06a1,1,0,0,0,1,1C111.9,12.13,112.12,11.69,111.8,11.13Z"/><path class="cls-1" d="M156.73,13.82A2.38,2.38,0,0,0,155,12.77c-.72,0-.61.38.27,1C157.1,15.08,157.45,15.1,156.73,13.82Z"/><path class="cls-1" d="M344.8,5.56c-1.56-2-7.61-2.48-14.83-1.08L325,5.42l1.82,4.19a34.93,34.93,0,0,0,3.81,6.65c1.42,1.75,1.63,2.59.73,2.86a2.14,2.14,0,0,0-1.32,1.82,1.47,1.47,0,0,0,1.45,1.48A1.51,1.51,0,0,0,333.08,21c0-.84.54-1.48,1.12-1.47s.79.43.47.92c-.49.72,9.13,2.52,10.17,1.92a53.55,53.55,0,0,0,.79-7.64C346,9.62,345.7,6.73,344.8,5.56Z"/><path class="cls-1" d="M227.36,16.51c-1.53,0-1.54.1-.14,1.25a2.61,2.61,0,0,1,1.07,2.51c-.31.81.59,1.28,2.61,1.35s3.1-.37,3.14-1.41C234.1,18.65,230.35,16.57,227.36,16.51Z"/><path class="cls-1" d="M225.64,24.42c-.86,0-1.58.39-1.6.94,0,1.29,1.65,1.36,2.5.09C226.9,24.92,226.49,24.45,225.64,24.42Z"/><path class="cls-1" d="M150.07,23.07c-.56.32-1,.78-1,1s.44.46,1,.48a1,1,0,0,0,1-1C151.08,23,150.64,22.75,150.07,23.07Z"/><path class="cls-1" d="M328.76,20.64c-1-1-5.61-1.52-5.65-.58,0,.48-1.13.29-2.48-.41s-2.43-1.83-2.4-2.54c0-1.24-5.5-4.1-7.13-3.68-.41.09-.74-.26-.72-.81.05-1.25,1.1-1.23,3,.06,1.44,1,3-.19,3.08-2.35,0-.54-.43-.33-1,.48-.89,1.24-1.17,1.25-1.9,0-.9-1.52.38-3.27,3.09-4.23,1-.33.62-.63-1-.79-2.91-.33-13.25-.67-14-.47a26.61,26.61,0,0,1-3.74-.15c-2.58-.24-3.13,0-2.7,1.28.35,1,0,1.59-.94,1.55-1.32,0-2.9,2.51-3.32,5.37-.22,1.48-4,2.19-5.39,1-.82-.67-1.42-.5-1.88.6-.37.87-1.13,1.56-1.68,1.55s-.7-.74-.33-1.61c1-2.42-.13-3.56-2.46-2.42-1.84.9-2,.78-1.33-1.08.53-1.44.35-2-.58-1.86s-1.19-.48-1-1.51-.22-1.76-.93-1.8c-.93,0-.86-.34.25-1s-.84-.92-6.48-.81c-4.41.1-8.46.21-9,.27a22.28,22.28,0,0,1-4.47-.65c-3.81-.85-4-.87-8.67-.61-4.1.23-4.78.92-3.48,3.61.75,1.51,1.65,2,3,1.62,3-.81,2.31.37-1.08,2-3,1.41-6.59.88-5.47-.77s-.49-1-2.71,1.09-2.15,2-.11,1.45a2.3,2.3,0,0,1,3,1.46c1.38,2.82,1.18,3.62-.52,2.09s-1.58-1.58-2.09,2.55l-.38,3.1,19.63.3c15.46.24,19.87,0,20.79-1.09,1.38-1.64,3.46-1.75,3.4-.19,0,.63.85.93,2,.68s2.21-.11,2.44.32,5.21.71,11,.69c10-.07,10.7.05,12,2.11.77,1.2,2,2.2,2.65,2.23,2.25.09,6.72-2.22,6.77-3.5,0-.69,1.3-1.27,2.81-1.28s3.43-.12,4.26-.19,2.15-.19,2.93-.25S329.11,21,328.76,20.64Z"/><path class="cls-1" d="M272.9,7.69c.29.85.09,1.51-.45,1.49s-.94-.72-.91-1.54C271.61,5.73,272.24,5.75,272.9,7.69Z"/><path class="cls-1" d="M260.47,6.67c1,.64,1,1.59.27,3.65s-1.17,2.42-1.61,1.12a1.61,1.61,0,0,1,.65-2.09c.87-.33.8-.75-.22-1.53C257.8,6.5,258.64,5.43,260.47,6.67Z"/><path class="cls-1" d="M255.69,7.55c.05-1.37.3-1.93.55-1.24a3.83,3.83,0,0,1-.09,2.5C255.85,9.5,255.64,8.93,255.69,7.55Z"/><path class="cls-1" d="M271.69,17a4.81,4.81,0,0,0-2.79,1.42c-.55.78-.77.73-.74-.17,0-1.8-4.09-3.39-5.69-2.2-.71.52-1.28.7-1.27.39s-1.24,0-2.78.76-2.92.92-3.09.32c-.53-1.77-5.08-1.22-6.44.78s-3.87,2.63-3.81,1A19.32,19.32,0,0,1,247,15.12c1.29-2.32,1.93-2.82,2.12-1.66s1.4,1.72,5,1.85c6.82.25,8.23-.31,10-4.05,1.58-3.43,3.56-4.44,3.46-1.76A1.51,1.51,0,0,1,266.16,11c-1,0-1,.15,0,.59a2.1,2.1,0,0,1,1.18,1.85c-.07,1.8,2.41,2.72,3.83,1.4s1.6-3,.2-2.22c-.56.32-1,.11-1-.47s.38-1.05.79-1C274.34,11.33,274.81,16.54,271.69,17Z"/><path class="cls-1" d="M295.46,12.31c-1.68.38-2.06.24-1.29-.48a2.55,2.55,0,0,1,2.39-.52C297.3,11.57,296.83,12,295.46,12.31Z"/><path class="cls-1" d="M302,14.3c-1.47-.05-2.68.34-2.7.89-.06,1.51-1.76,1.14-2.31-.5s1.49-2.59,4.49-1.89C304.7,13.55,305,14.4,302,14.3Z"/><path class="cls-1" d="M241.88,6.06c-.38-1.73-2.08-1.88-28.18-2.71-20.73-.66-28.18-.58-29.35.33s-1.64.95-1.95-.08-.91-1.05-2.84-.22-2,1.11-.72,1.2a1.75,1.75,0,0,1,1.69,1.69c0,.86.4,1.3,1,1s1-.1,1,.49-.72,1-1.54,1a1.5,1.5,0,0,0-1.56,1.44,1.4,1.4,0,0,1-1.3,1.46,19.54,19.54,0,0,0-3.57.49c-1.57.37-2.2.13-2-.7a1.64,1.64,0,0,0-1-1.81c-.94-.38-1.22-.06-.85,1a1.63,1.63,0,0,1-1.16,2.15c-.93.33-1.83.1-2-.48s-1.16-1.11-2.2-1.15c-1.26,0-1.71.43-1.36,1.46s-.18,1.5-2,1.42c-3.22-.13-4.55,1.75-2.43,3.43a2.55,2.55,0,0,1,.94,2.9c-1.13,2.63,1,1.88,3.48-1.25,1.52-1.91,1.88-2.93,1.05-3s-.86-.31.2-.93a2.53,2.53,0,0,1,2.27-.33c1.52,1,.6,4.34-1.49,5.37-1.17.57-1.89,1.29-1.59,1.62s1.27,0,2.16-.67c1.22-.93,1.88-.94,2.72,0,1.78,1.92,5.81,1.56,7.9-.68,1.06-1.13,1.7-2.45,1.42-2.94s.41-.85,1.53-.82c1.48.06,1.87-.38,1.45-1.6s-.2-1.45.56-.92a2.18,2.18,0,0,1-.59,4c-1.38.46-1.44.81-.36,2.21s3,1.64,13.82,1.54c6.89-.07,14.57-.3,17-.53s5.46-.34,6.6-.29,2.11-.55,2.14-1.4c0-1.06-.56-1.32-2-.9-1.84.5-1.93.38-.71-1,.76-.84,1.12-2,.81-2.57-.6-1.06,2.93-3.29,3.77-2.38.26.28.84-.94,1.28-2.74.71-2.88.91-3,1.79-1.37s1.06,1.78,2.24-.39c1.06-1.94,2.06-2.27,6.44-2.19,2.85.06,5,.37,4.77.7s.41.7,1.41.81C241.77,7.85,242.17,7.37,241.88,6.06Z"/><path class="cls-1" d="M205.76,6.67c.73-1.07,1.7-1.94,2.15-1.92s.52.46.16,1-.07,1,.65,1.1.39.47-.73.9C204.8,9,204.34,8.76,205.76,6.67Z"/><path class="cls-1" d="M194.58,5.25c1.16,0,1.82.51,1.46,1.06a1.65,1.65,0,0,1-3-.13C192.72,5.62,193.41,5.2,194.58,5.25Z"/><path class="cls-1" d="M185.42,7.44a1.15,1.15,0,0,1,1.54.5c.33.57-.11,1-1,1C184.24,8.86,184,8.25,185.42,7.44Z"/><path class="cls-1" d="M186.31,12.93c-.53,0-.68-.69-.33-1.5.81-1.89,1.43-1.87,1.36.05C187.31,12.31,186.85,13,186.31,12.93Z"/><path class="cls-1" d="M197.18,15.14a6.12,6.12,0,0,0-2.58,1.63c-.6.69-2.58,1.43-4.41,1.66s-3,.09-2.61-.26A2.47,2.47,0,0,1,189,17.5c2.31-.1,5.23-1.61,5.27-2.74,0-.89.79-1.12,2.25-.66S198.21,14.87,197.18,15.14Z"/><path class="cls-1" d="M208.54,19.68c-2.82-.18-4.22-.93-7.06-3.78L199,13.42l2.61.09c1.83.07,2.44.51,2,1.49a1.69,1.69,0,0,0,.34,2c.51.33.9-.12.86-1a1.9,1.9,0,0,1,1.72-1.85c1.34-.16,1.64.24,1.15,1.6a2.33,2.33,0,0,0,1.1,2.93C210.42,19.73,210.41,19.79,208.54,19.68Z"/><path class="cls-1" d="M214.35,19.43c-1.44.5-1.55.38-.54-.57.71-.67,1.52-.93,1.82-.61S215.35,19.1,214.35,19.43Z"/><path class="cls-1" d="M157.09,23.86c-1.54-.9-2.14-.75-3,.79a9.25,9.25,0,0,0-1.14,2.53c0,.34.55.29,1.26-.12a5.08,5.08,0,0,1,3-.38C159.54,27.16,159.47,25.25,157.09,23.86Z"/><path class="cls-1" d="M151,25.61a1,1,0,0,0-1,1c0,.58.42.8,1,.48C152.23,26.36,152.26,25.66,151,25.61Z"/><path class="cls-1" d="M69.49,18.55a2.92,2.92,0,0,0-2.27-1.07c-1.46-.05-1.49.08-.23,1C68.9,19.79,70.22,19.83,69.49,18.55Z"/><path class="cls-1" d="M147.06,20.46c-1.51-.06-1.84-.51-1.3-1.79.63-1.52.5-1.56-1-.42-1.32,1-1.73,1-1.69.06s-.37-.93-1.67.06-1.79,1-2.08.06A2.53,2.53,0,0,0,137,17.08c-1.06,0-1.92-.4-1.92-.82s-1.07-1.59-2.38-2.63c-1.82-1.42-2.26-1.51-1.88-.38s-.09,1.33-1.81.94c-1.27-.29-.78.13,1.08.93,2.71,1.18,3,1.59,1.63,2.07-2.41.82-8.8-.51-10.57-2.23a2.49,2.49,0,0,0-3.23-.47c-1.21.61-1.78.57-1.75-.14a1,1,0,0,0-1-1.09c-.55,0-1,.67-1.06,1.53s-.5,1.26-1,.89-1-.18-1,.4c0,1.25,1.61,1.48,2.37.35.29-.43,2.16-.54,4.16-.23,3,.48,3.41.79,2.25,1.84-1.88,1.7-7.52,2.86-6.49,1.34.41-.62.23-1.13-.42-1.17s-.94.62-.66,1.43c.35,1,0,1.28-1.09.79s-1.36-.29-.87.59a2.06,2.06,0,0,0,2.38.71c.92-.33,9-.3,17.88.06,9.25.34,16.48.21,16.84-.31S148.18,20.5,147.06,20.46Z"/><path class="cls-1" d="M131.86,19.3c-.38.38-2.33.8-4.35.9-3.28.18-3.47.06-1.82-1.07,1-.7,2.24-.88,2.7-.38a2.7,2.7,0,0,0,2.49.37C131.79,18.83,132.23,18.92,131.86,19.3Z"/><path class="cls-1" d="M85.11,14.12c-.59,0-.8.43-.48,1,.74,1.31,1.45,1.32,1.5.05A1,1,0,0,0,85.11,14.12Z"/><path class="cls-1" d="M85.11,14.12c-.59,0-.8.43-.48,1,.74,1.31,1.45,1.32,1.5.05A1,1,0,0,0,85.11,14.12Z"/><path class="cls-1" d="M375.5,44.21a100.66,100.66,0,0,1-10.73.32c-6.36-.08-8,.2-8.06,1.39a3.08,3.08,0,0,1-2.08,2.25c-3.11,1.13-8.57,1.45-8.53.49,0-.47,1-.83,2.28-.8,3.54.09,6.92-1.14,6.55-2.38-.22-.73-3.49-1.23-9.24-1.4-9.74-.3-38-.09-46,.33-2.76.14-9.07.36-14,.47s-9.68.71-10.5,1.32c-1.17.87-1.3.82-.62-.23s-1.16-1.29-11-1.16c-6.54.09-19.09.06-27.89-.07-24.58-.37-45.54.12-45.57,1.06,0,.47.91.88,2.07.93,1.45.05,1.91.53,1.49,1.53a2.66,2.66,0,0,0,1.12,2.79c2.33,1.79,3.44,6.91,1.49,6.84-.77,0-1.64-1.14-1.92-2.47-.58-2.78-5.92-5.52-6.88-3.54-.31.63-.28-.19.07-1.82.59-2.7.51-2.82-.85-1.29a4.57,4.57,0,0,1-2.55,1.66,2,2,0,0,0-1.6,1.19c-.42.94-.56.92-.58-.09,0-1.64,2.61-4.22,3.43-3.34.32.35.61.15.63-.45s.84-1.27,1.81-1.49-.35-.52-2.93-.68A23.13,23.13,0,0,1,177.63,44c-2-1-3-1-4.59-.13-1.1.63-2.45.85-3,.48-2-1.36-6.29-1.39-9.81-.07-4.38,1.64-21.7,1.07-25.5-.84-2.08-1.05-2.86-1-4.42.32-3.33,2.79-19.62.62-20.78-2.77-.66-1.94-4.9-1.88-5.74.09a2.75,2.75,0,0,0,.29,2.72c1.83,2,1,2.39-5.83,2.87-9.77.69-12.09.52-14.74-1-1.64-1-2.77-1.09-3.68-.41C76.92,47.36,68,47.59,23,46.65c-6.88-.15-13.08.08-13.78.5-.88.52-1.4,3.84-1.65,10.69l-.38,9.94,2.75.09a30.22,30.22,0,0,0,6.28-.69c1.94-.44,11.64-.78,21.54-.76s21.17,0,25-.12,17.26.07,29.8.32,23.07.22,23.4-.09,1.84.15,3.36,1c3.28,1.86,10.55,2.12,13.44.48,2.15-1.22,18.29-3.13,19.52-2.31.39.26,5,.22,10.15-.08,12.29-.71,28.28-.92,50-.65,9.63.12,22.25-.12,28-.53s13-.79,16-.84c11.56-.2,21-1,20.58-1.67-.23-.41-2.46-.67-5-.58s-4.51-.26-4.49-.8c0-1.47-3.26-1.29-7,.39-1.83.83-3.6,1.1-3.93.61-1-1.45-3.14-1.67-6.44-.66-3.94,1.21-5.75-1-2.28-2.77L250.22,57,248,56.24c-1.23-.4-2.21-1.12-2.2-1.6,0-1.28,2.44-1,3.79.46.82.88,1.17.91,1.2.11a4.73,4.73,0,0,0-1.32-2.59c-2-2.19-.1-4.63,2.36-3,1.49,1,2.19.93,3.58-.36,1.61-1.5,1.7-1.45,1.28.71a5.64,5.64,0,0,1-1.9,3.26c-1.12.73-1,.86.73.56,1.49-.27,2,0,1.65.86s-1.4,1-2.55.65a2.7,2.7,0,0,0-3,.75c-1.56,2.27-1.14,2.85,1.44,2,1.7-.58,2.58-.48,2.81.32s1.78.52,4.77-.82c2.43-1.1,4.9-1.7,5.49-1.33s.76.3.4-.14.24-1.7,1.35-2.8c2.85-2.84,2.56-3.52-1.21-2.76-5,1-6.87,1.87-6.26,2.94.32.57,1.41.28,2.53-.67s2.26-1.34,2.61-1,.11.66-.53.64a1.22,1.22,0,0,0-1.22,1.21c-.05,1.46-4.06,4-4.89,3.12a6.76,6.76,0,0,1-.57-3.12c0-3.53,3.05-5,10.15-4.92,4.56.06,5.57.32,4.22,1.06-2.19,1.18-5.48,6.73-4,6.79a1,1,0,0,0,1.06-1,1,1,0,0,1,1.1-1c.58,0,.81.41.5.87-.66,1,3.57,3.28,6.21,3.38a4.47,4.47,0,0,1,3,1.53c.89,1.16.74,1.56-.7,1.94-1,.27.66.38,3.69.25s10.58-.34,16.78-.48,11.28-.58,11.29-1a4.24,4.24,0,0,0-1.46-2.07c-1.13-1-1.79-1.06-2.7-.22-1.85,1.72-3.22,1.24-1.6-.57,1.29-1.45,1.22-1.5-.8-.53-2.89,1.41-2.92,1.4-3-1-.06-1.42.54-2,2-1.92,2,.07,2,0,.33-1.34-1-.8-1.45-1.92-1-2.57s1.36-.35,2.67,1.45c1.6,2.19,4.71,3.69,4.77,2.29a9,9,0,0,1,.65-1.9c.48-1.12.11-1.37-1.53-1s-2.61-.21-3.65-1.83c-1.32-2-1.61-2.13-2.47-.73a3.66,3.66,0,0,1-3,1.51c-1.42,0-1.89.4-1.54,1.45.29.83.1,1.5-.43,1.48s-1.27,1.08-1.67,2.44-1.23,2.46-1.86,2.45-.48.43.32,1,1,1,.27,1c-2-.05-2.54-2.19-.92-3.7,1.22-1.13,1.33-1.94.52-3.88-.57-1.35-1.37-2.47-1.78-2.49-1.29-.06-.7-3,.62-3.06a22.61,22.61,0,0,0,3.27-.46,24.64,24.64,0,0,1,5.51-.19c1.92.13,6.1.35,9.29.48,4,.16,5.94.67,6.27,1.65s1.12,1.21,2.93.59c2.25-.76,2.44-.58,2.34,2.15-.08,2.13.37,3,1.59,3s1.44-.22.54-1.18c-1.44-1.56-1.39-6.24.07-5.26a1.74,1.74,0,0,1,.45,2.07c-.32.76-.15,1.4.38,1.42a1,1,0,0,0,1-1c0-.55.76-1,1.65-.94,1.33.05,1.39.33.34,1.5s-.88,1.31,2,.43,3.41-.75,4.15.69c.48.94,1.3,1.45,1.84,1.15s1.64.18,2.47,1.07a5.64,5.64,0,0,0,3.68,1.61c2.07,0,2.08-.06.21-.75a3.45,3.45,0,0,1-2.19-2.39c-.16-1.29.31-1.52,2-1a9.44,9.44,0,0,1,3.52,2.05,6,6,0,0,0,3.64,1.46c1.3.05,2.63.55,2.95,1.11a2.3,2.3,0,0,0,1.77,1c.75,0,.83-.25.22-.74a3.18,3.18,0,0,1-1.11-1.78,19.7,19.7,0,0,0-.74-2.74c-.62-1.79,1.16-2.56,6.63-2.86A14.48,14.48,0,0,0,366,48.42c2.05-1.05,2.54-1,3.57.56.84,1.24,1.43,1.44,2,.65a2.19,2.19,0,0,0,.21-2.07,1.27,1.27,0,0,1,.66-1.63c.75-.43.91-.26.44.45-1,1.42,1.79,1.59,4.49.27S378.85,43.7,375.5,44.21Z"/><path class="cls-1" d="M28.73,52.58a1,1,0,1,1,1-1A1,1,0,0,1,28.73,52.58Z"/><path class="cls-1" d="M52.49,63.25c-.64,1-1.23.78-2.51-.74-1.09-1.3-1.29-2.2-.58-2.61s1.07-.17,1.05.37.62,1.15,1.43,1.36S53,62.48,52.49,63.25Z"/><path class="cls-1" d="M76.72,60.37c-7.71-.14-8.26,0-8.32,1.62s-3.4,2.16-6.53.78c-1.08-.48-1.41-.88-.72-.89s1.27-.44,1.29-1c.05-1.38-3.19-2-5.11-.9-1.12.61-2.66.45-4.73-.5-3-1.36-4.11-3.21-1.94-3.12.58,0,.8-.42.48-1a2.77,2.77,0,0,0-2.08-1.08c-.83,0-1.24.41-.92,1s.11,1-.47,1c-2-.07-.27-4.25,2.22-5.51,3.44-1.73,4.73-1.55,7.18,1,1.66,1.74,1.75,2.08.4,1.55-.95-.38-1.74-.25-1.76.29-.06,1.51,3.57,1.26,5-.35,1.07-1.19,1-1.46-.32-1.51-.89,0-1.6-.51-1.58-1.06s1.16-1,2.54-.91,2.48.57,2.45,1.16.36.83.84.56,2.26.09,4,.81c2.29,1,3.08,1.93,3,3.7-.08,2,.31,2.34,2.42,2,1.39-.21,2.51,0,2.49.5s1.1.64,2.49.35,2.5-.11,2.48.51S79.33,60.42,76.72,60.37Z"/><path class="cls-1" d="M81.23,52c-2.57,1.8-3.51,1.77-3.44-.1,0-1,1-1.46,2.74-1.39C83.11,50.62,83.14,50.69,81.23,52Z"/><path class="cls-1" d="M87.11,63.37c-.4.37-1.35.12-2.11-.57-1-.91-1.53-.94-2-.11s-.47.64-.28-.16A2.26,2.26,0,0,1,84,61C85.39,60.61,88,62.58,87.11,63.37Z"/><path class="cls-1" d="M88.1,57.63c-.3.28-.52,0-.5-.55s-.92-1.34-2.1-1.7c-1.82-.54-1.94-.87-.79-2.16s1.51-1.2,2.64,1.2C88.06,55.91,88.39,57.36,88.1,57.63Z"/><path class="cls-1" d="M91.46,49.86c-1.06,0-1.64-.26-1.29-.58a2,2,0,0,1,1.92,0C92.87,49.63,92.62,49.85,91.46,49.86Z"/><path class="cls-1" d="M157.87,54.44a2.2,2.2,0,0,1-1.58-1.06c-.32-.56-.13-1,.42-1a2.17,2.17,0,0,1,1.58,1.06C158.61,54,158.42,54.46,157.87,54.44Z"/><path class="cls-1" d="M178.6,58.81c0,1.33-.46,2.4-.92,2.38s-.57-1.37-.27-3c.36-2,1.11-2.93,2.18-2.84s1.17.31.37.6S178.65,57.48,178.6,58.81Z"/><path class="cls-1" d="M183.55,58.45c-1.43.69-2,1.71-1.73,3,.44,2-.84,2.62-1.83.88-.68-1.2,2.41-6.94,3.71-6.89C185.69,55.49,185.59,57.45,183.55,58.45Z"/><path class="cls-1" d="M187.87,63c-1,.34-1.44.1-1.17-.62.56-1.48,2.86-2.22,2.81-.9C189.49,62,188.75,62.67,187.87,63Z"/><path class="cls-1" d="M190.05,58.05a9,9,0,0,1-2.45.51c-1.09,0-2.21-4-1.35-4.83.35-.34.87.39,1.14,1.62.56,2.52,1.31,2.79,3.11,1.12q1.25-1.15,1.2-.06C191.68,57,190.94,57.75,190.05,58.05Z"/><path class="cls-1" d="M194.42,63.83c-1.28,0-1.25-.76.06-1.5.56-.32,1-.11,1,.47A1,1,0,0,1,194.42,63.83Z"/><path class="cls-1" d="M200.43,58.57c-.32.3-.86-.28-1.19-1.28-.49-1.44-.37-1.55.58-.53C200.47,57.46,200.75,58.28,200.43,58.57Z"/><path class="cls-1" d="M210,60c-2.25-.26-4.17.15-5.24,1.14-1.56,1.43-1.64,1.41-.93-.25a12,12,0,0,0,.78-2.29c0-.26.45-.18,1,.18s1,.18,1-.4a1.26,1.26,0,0,0-1.21-1.18c-.93-.1-.91-.25.09-.61.73-.26,1.95.39,2.7,1.44,1,1.33,1.28,1.45,1.08.39-.15-.83-.1-1.17.11-.74a3.15,3.15,0,0,0,2.31.83c1.05,0,1.9.49,1.88,1S212,60.19,210,60Z"/><path class="cls-1" d="M213.64,51.62A3.22,3.22,0,0,1,211,52c-.49-.33-2.05-.21-3.47.27s-2.79.52-3,.09-1.72-.76-3.29-.71c-2.12.07-3.1-.52-3.88-2.33s-.75-2.42.37-2.38c.78,0,1.39.46,1.38,1s.69,1.2,1.58,1.58c1.35.58,1.42.44.41-.87-.82-1.07-.85-1.56-.09-1.53.61,0,1.64,1,2.28,2.09,1.36,2.37,2.67,2.71,2.75.71a2.44,2.44,0,0,1,1.65-1.94c2.45-.84,3.47-.6,3.15.71a1.15,1.15,0,0,0,.94,1.42l2.49.42C215,50.59,214.73,51,213.64,51.62Z"/><path class="cls-1" d="M217,48.37a3.86,3.86,0,0,1,2.34,2c.72,2.12-1.8,1.63-3.08-.6C215.31,48.08,215.41,47.89,217,48.37Z"/><path class="cls-1" d="M216.07,60.65c-.33-.57.11-1,1-1s1.55.26,1.54.5C218.54,61.23,216.6,61.6,216.07,60.65Z"/><path class="cls-1" d="M231.42,51.21c-.82,0-1.51.39-1.53.94s-.75,1-1.61.94c-1,0-1.4.55-1.1,1.71.25,1-.42,2.75-1.5,4-2.17,2.43-3.37,2.52-7.35.58-3.26-1.6-2.46-2.82,1.27-1.93,2.17.52,2.9.16,4-1.95,1.74-3.47,1.67-3.79-.68-3.27s-2.7-1.17-.43-2c.83-.28,1.28-.92,1-1.43s.37-.88,1.46-.84a2.79,2.79,0,0,0,2.52-1.15c.31-.68.54,0,.53,1.52,0,2.79,1.93,4.07,2,1.32a1.5,1.5,0,1,1,1.44,1.56Z"/><path class="cls-1" d="M233.57,55.79c-1.28-3.11-.3-4.29,1.91-2.32,1.27,1.13,1.74,1.18,2.1.22a1.9,1.9,0,0,1,1.72-1.18c2,.07,1,4.31-1.19,5.06C235.05,58.64,234.68,58.5,233.57,55.79Z"/><path class="cls-1" d="M241,60c-2.07.71-2.22.69-2.83-.39-.28-.49.39-1.1,1.5-1.35C242.1,57.69,243.27,59.2,241,60Z"/><path class="cls-1" d="M242.63,52.47l-4.47-.73c-3.67-.6-4.19-2-1.07-2.84,2.93-.81,6.91.53,6.84,2.3A1.19,1.19,0,0,1,242.63,52.47Z"/><path class="cls-1" d="M247.7,49c-.35.78-.58.54-.58-.63s.25-1.63.57-1.29A2,2,0,0,1,247.7,49Z"/><path class="cls-1" d="M273.44,55.29c-.29-.83-.09-1.5.45-1.48s.94.71.91,1.54C274.73,57.27,274.1,57.24,273.44,55.29Z"/><path class="cls-1" d="M280.13,55c-2.61-.12-3.76-1.31-3.75-3.88,0-3.06,1.14-2.78,3.55.89C281.8,54.89,281.82,55.11,280.13,55Z"/><path class="cls-1" d="M298.69,58.75a1,1,0,0,1,1,1,1,1,0,1,1-1-1Z"/><path class="cls-1" d="M292.43,55.63c-1.89,2.33-4.53,2.77-6.15,1-1.77-1.91-1.08-3.22,2.31-4.36C291.8,51.21,294.27,53.35,292.43,55.63Z"/><path class="cls-1" d="M351.58,51.66c-1.06,0-1.64-.26-1.3-.58a2,2,0,0,1,1.92,0C353,51.42,352.74,51.65,351.58,51.66Z"/><path class="cls-1" d="M85.11,14.12c-.59,0-.8.43-.48,1,.74,1.31,1.45,1.32,1.5.05A1,1,0,0,0,85.11,14.12Z"/><path class="cls-1" d="M208.43,44.4c6.9.44,54.12.62,59.8.22,8.46-.59,28.38-.39,29.12.29.43.39.07.74-.78.78a2.37,2.37,0,0,0-2,1.45c-.46,1.35-2.28,1.29-10.71-.36a3.64,3.64,0,0,0-2.72.74,1.94,1.94,0,0,1-2.71-.11c-.82-.63-3-1-4.78-.77a25.21,25.21,0,0,1-6.34-.21,14.31,14.31,0,0,0-7.34,1.1c-4.88,1.94-6.37,2.16-5.64.86s-3.65-1.79-13.49-1.56c-13.6.31-21,.12-21.71-.56-.38-.35-4.21-.51-8.52-.35-5,.19-7.84-.09-7.87-.8S204.55,44.15,208.43,44.4Z"/><path class="cls-1" d="M312.39,50.35c.66-.72,2.61.62,2.66,1.83,0,.66-.55.6-1.53-.15S312.15,50.61,312.39,50.35Z"/><path class="cls-1" d="M321.17,50.24c.3-.32.88.21,1.29,1.18.6,1.41.49,1.52-.54.58C321.21,51.35,320.88,50.55,321.17,50.24Z"/><path class="cls-1" d="M327.07,52.54a1,1,0,1,1-1,1A1,1,0,0,1,327.07,52.54Z"/><path class="cls-1" d="M364.84,50.92c.61-.67,1.46-.89,1.88-.5s.14,1.13-.64,1.65C364.26,53.3,363.38,52.49,364.84,50.92Z"/><path class="cls-1" d="M357.52,51.74c.86.29,1.58,1,1.6,1.57s-.69.62-2-.1C354.9,51.91,355.14,50.93,357.52,51.74Z"/><path class="cls-1" d="M362.38,49.21c.93,0,1.25.66.93,2.07a2.72,2.72,0,0,0,1,2.95c1,.56,1,.85.21.89-1.25.06-3.4-2.9-3.47-4.79C361,49.74,361.6,49.24,362.38,49.21Z"/><path class="cls-1" d="M341,49c1.4-.06,3,3.83,2.47,6.11-.22,1-.79,1.57-1.26,1.3a1.62,1.62,0,0,1-.38-1.89,5.12,5.12,0,0,0-.71-3.45C340.24,49.68,340.2,49,341,49Z"/><path class="cls-1" d="M325.11,56.62a2.18,2.18,0,0,1,1.65.94c.36.53.21,1-.34,1a2.19,2.19,0,0,1-1.66-.94C324.4,57.1,324.56,56.64,325.11,56.62Z"/><path class="cls-1" d="M274.42,57.92c1.78-1.92,5.77-1.27,5.86,1,.06,1.59,4.68,1.78,6.87.28.77-.53,2.58-.49,4.33.1,2.55.85,3.14.74,3.91-.77,1.21-2.37,3.29-2.34,5.72.09,1.74,1.72,2.06,1.77,2.54.36s1-1.41,2.61-.62c1.13.55,2.05.65,2,.22s.4-.18.91.56a1.52,1.52,0,0,0,2,.6,1.24,1.24,0,0,0,.5-1.65c-.34-.5-.16-.92.39-.94A2.67,2.67,0,0,1,314,58.47c.47.77,2.78,1.56,5.14,1.76,3.17.26,4.1,0,3.53-.82s-.28-.81.85,0a3.32,3.32,0,0,0,5.16-1.54,2.84,2.84,0,0,1,2.52-1.52c1.11,0,2-.53,2-1.08s.64-1,1.46-1.05a1.55,1.55,0,0,0,1.44-1.64c0-.87.51-1.41,1.21-1.2,1.19.37,1.35,1.59.79,6.18-.19,1.62.66,2.15,4.81,3l5,1-8.3.41c-5.3.26-8.09,0-7.72-.61a3.31,3.31,0,0,1,2.52-1.1,1.77,1.77,0,0,0,1.88-1.57c-.08-2.12-1.43-1.82-5.62,1.26-3.13,2.3-4.37,2.62-8.71,2.28-2.79-.23-11.82-.34-20.07-.26-21.72.22-26.42,0-27.8-1.27C273.17,59.83,273.24,59.19,274.42,57.92Z"/><path class="cls-1" d="M353.39,60.56c1.17.69.75.94-1.71,1-1.79.07-3.26-.32-3.28-.87C348.35,59.48,351.38,59.36,353.39,60.56Z"/><path class="cls-1" d="M367.92,60c1.46,1.12,3.88-.66,2.89-2.13-.61-.91-.3-.94,1.37-.13s2,1.33,1,2.56c-.85,1.07-3.14,1.54-8,1.61-3.73.06-7-.2-7.26-.59C357.22,60.33,366.66,59.09,367.92,60Z"/><path class="cls-1" d="M377,51.23c.48-.33,1.15.05,1.48.83.41.95.12,1.26-.86.92C375.87,52.4,375.74,52,377,51.23Z"/><path class="cls-1" d="M377,51.23c.48-.33,1.15.05,1.48.83.41.95.12,1.26-.86.92C375.87,52.4,375.74,52,377,51.23Z"/><path class="cls-1" d="M575.51,43.73c.6-.18-1,4.33-1.18,8.84-.28,9.22-.69,9.76-7.8,10.26a17.48,17.48,0,0,0-4.81.74c-.23.24-2.53-.09-5.12-.74s-11-1.14-18.72-1.09c-13.37.09-28.14-.14-41-.63-3.28-.12-6.3-.78-6.77-1.47-.66-1-1.08-1-2,0-.77.83-4.38,1.41-10.32,1.63-5,.19-9.39.63-9.71,1-.86.93-22.55,1.46-24,.59a14.58,14.58,0,0,0-5.24-.74c-8.56,0-19.07-.83-20.07-1.59-1.28-1-4.45,1.36-4.41,3.27,0,.84-.72.48-1.88-.91-1.37-1.65-2.47-2.09-4-1.56-1.13.41-2.29.38-2.58-.05s-6.75-.69-14.36-.57-15.43-.09-17.37-.48c-3.44-.68-3.46-.7-.6-.91l2.94-.21-3-2.88a16,16,0,0,0-4.82-3.39,2.52,2.52,0,0,1-1.9-2c0-.81-1.31-2.56-2.85-3.88-2.4-2.06-3.46-2.3-7.53-1.71-2.61.39-5,.28-5.37-.24-.9-1.35-3.57-1.06-3.22.35.17.65-.53,1.39-1.55,1.66s-1.62.05-1.22-.65,0-1.1-.84-1.06a2.26,2.26,0,0,0-1.93,1.32c-.27.76-.52.56-.6-.48-.15-1.79-.48-1.84-10.15-1.74-4.11,0-4.48.24-4.18,2.28.2,1.43-.22,2.26-1.17,2.3a1.56,1.56,0,0,1-1.54-1.56c-.05-1.18-.73-1.47-2.5-1.06-1.33.31-2.64.06-2.9-.54-.62-1.46-5.39-1.64-7.7-.29-1.22.72-2,.74-2.48.09s-2.78-.65-5.92-.16c-4.28.67-5.39.53-5.93-.75s1.51-1.62,21.77-2c12.34-.24,22.82-.22,23.28,0s9.35.39,19.77.3c12.16-.12,19.09.2,19.35.87s.82.7,1.52.11c1.43-1.22,12.47-2.9,19.55-3a42.05,42.05,0,0,1,11.84,1c2.1.41,3.8.21,4.64-.54s1.52-.9,2.06-.1a1.68,1.68,0,0,0,2,.55c.69-.29,3-.19,5.16.22a99.65,99.65,0,0,0,11.92,1c4.41.13,10.16.39,12.78.57s4.75-.09,4.73-.59.86-1.19,1.94-1.52c1.34-.4,2-.1,2,.92s.62,1.27,1.61.84a16.77,16.77,0,0,1,4.54-.78c1.73-.06,2.7-.52,2.32-1.08-1-1.46.57-1.23,2.47.36.91.77,4.09,1.52,7.05,1.68,5.86.31,8.57,2,8.75,5.53.08,1.74.78,2.29,3.12,2.47,3.31.24,5.82,1.72,5.1,3a3.52,3.52,0,0,0,.26,2.49c.54,1.27,1.49,1.51,4,1,1.82-.37,3.61-.22,4,.33a2.45,2.45,0,0,0,2.54.43c1-.31,2.14-.15,2.47.34.68,1,2.44.14,2.39-1.19,0-1-4-2.36-5.7-2-.67.15-.95-.74-.72-2.28.46-3,2.12-3.45,2.23-.6.07,1.88,2.38,2.53,6.67,1.86.6-.09,2.35.92,3.89,2.24,3.6,3.09,7,3,9-.33.85-1.41,2.32-2.6,3.27-2.66,1.62-.09,1.62-.17,0-1.32-2-1.43-2.28-5.6-.28-4.92.72.25,1.29-.05,1.27-.66-.05-1.37-1.6-1.36-4,0-1.3.76-2.14.66-3.07-.37-1.5-1.68-3.58-.77-2.14.93a4.88,4.88,0,0,1,1,2.62,14.91,14.91,0,0,0,.84,3.72c.66,1.81.44,2.24-1.19,2.3-2.55.1-3.89-1.8-2.12-3,1-.71.88-.93-.66-1a28.17,28.17,0,0,0-3.75.19c-1,.14-1.76-.23-1.78-.82s.71-1.09,1.63-1.12c2.48-.09,1.22-.79-2.22-1.22-1.66-.21-4.33-.66-5.94-1-2.09-.45-2.71-.32-2.17.48.41.62.32,1.14-.2,1.16s-1.25-1-1.61-2.21c-.55-1.9-1.38-2.24-5.44-2.25-3.57,0-4.35.22-3.05.9,2.51,1.33,1.38,3.35-2.09,3.72-2.32.26-3-.09-3-1.55A2.68,2.68,0,0,1,492,46.42c.67-.3,0-.54-1.53-.52s-2.76-.37-2.78-.85,8.42-1,18.72-1.12c35.82-.48,40.48-.43,45.14-.43s12,.9,16.54.81"/><path class="cls-1" d="M520.46,47.45a2,2,0,0,0,0,1.92c.35.79.57.54.58-.63S520.78,47.11,520.46,47.45Z"/><path class="cls-1" d="M542.16,49.37c-.55,0-1,.23-1,.47s.48.71,1,1,1,.1,1-.48A1,1,0,0,0,542.16,49.37Z"/><path class="cls-1" d="M534.23,55.67c.54,0,.77.87.52,2-.45,2.05.39,2.42,4.17,1.87a3,3,0,0,1,2.73,1c.67,1,1.31.82,2.93-.76,2-1.92,2.15-1.93,3.41-.34a4,4,0,0,0,2.47,1.64c1.82-.07,1.2-3.05-.74-3.6-3.76-1.06-8.64-3.61-9.16-4.78a2.84,2.84,0,0,0-2.68-1.08c-2.08.15-2.08.17-.11.93s1.75.81-.65,1S531.91,55.76,534.23,55.67Z"/><path class="cls-1" d="M374,53.7a3.49,3.49,0,0,1,2.68.86,1.64,1.64,0,0,0,1.94.37c1.31-.56,3.22,2.28,2.25,3.33-.28.29-.52,0-.55-.63a1.32,1.32,0,0,0-1.48-1.11,1.49,1.49,0,0,0-1.24,1.8c.29,2.53,4.93,2.45,5.49-.1.43-1.91.47-1.91,1.94,0s5.85,2.55,6.86.76a1.17,1.17,0,0,1,1.56-.49,1.09,1.09,0,0,1,.45,1.47c-.71,1.26,5.86.49,6.73-.79.45-.66.72-.63.75.08.1,1.89,7.09.45,9.1-1.88,2.48-2.86,4.6-2.79,5.87.21.88,2.07,1.93,3.13,2.15,2.17.42-1.84-.09-8.75-.65-8.73-.41,0-.73.55-.7,1.19s-.24.91-.57.6-2.62.6-5.08,2c-6.31,3.66-12.07,3.7-17.71.13-3.67-2.33-4.34-3.22-4-5.37s.06-2.43-1.14-1.92a1.6,1.6,0,0,0-.94,2c.33.77.1,1.42-.51,1.44s-1.05,1.41-1,3.08l.11,3-2.2-1.91c-1.42-1.22-2-2.64-1.74-4,.47-2.16-.93-2.91-1.54-.82-.52,1.77-3.86.29-4.56-2-.76-2.53-3.39-2.49-3.29,0a11.4,11.4,0,0,1-.48,3.52C372.15,53.31,372.58,53.76,374,53.7Z"/><path class="cls-1" d="M377,51.23c.48-.33,1.15.05,1.48.83.41.95.12,1.26-.86.92C375.87,52.4,375.74,52,377,51.23Z"/><path class="cls-1" d="M294.42,42.6c7-.22,7.52-.09,7.49,1.85,0,1.69-.14,1.76-.57.36-.57-1.91-.84-1.93-7.59-.56-3.35.68-5,.62-5.79-.23S288.58,42.78,294.42,42.6Z"/><path class="cls-1" d="M349.05,44.27a1,1,0,0,1,1,1c0,.58-.42.79-1,.47C347.79,45,347.77,44.31,349.05,44.27Z"/><path class="cls-1" d="M354.31,51.07a1,1,0,1,1-1,1A1,1,0,0,1,354.31,51.07Z"/><path class="cls-1" d="M467.8,48.8c.75-1.31,1.45-1.34,1.5-.06a1,1,0,0,1-1,1C467.7,49.8,467.48,49.36,467.8,48.8Z"/><path class="cls-1" d="M422.87,51.49a2.35,2.35,0,0,1,1.77-1.05c.72,0,.61.38-.27,1C422.5,52.75,422.15,52.76,422.87,51.49Z"/><path class="cls-1" d="M352.24,54.18c1.53,0,1.54.09.14,1.25a2.61,2.61,0,0,0-1.07,2.51c.31.81-.59,1.27-2.61,1.35s-3.1-.37-3.14-1.41C345.5,56.32,349.25,54.24,352.24,54.18Z"/><path class="cls-1" d="M354,57.09c.86,0,1.58.39,1.6.94.05,1.29-1.65,1.36-2.5.09C352.71,57.59,353.12,57.12,354,57.09Z"/><path class="cls-1" d="M429.54,55.74c.56.32,1,.78,1,1s-.44.46-1,.48a1,1,0,0,1-1-1C428.53,55.64,429,55.42,429.54,55.74Z"/><path class="cls-1" d="M250.84,58.31c1-1.05,5.61-1.53,5.65-.58,0,.47,1.13.28,2.48-.41s2.43-1.83,2.4-2.55c0-1.23,5.5-4.09,7.13-3.68.41.1.74-.26.72-.81-.05-1.24-1.1-1.22-3,.07-1.44,1-3-.2-3.08-2.35,0-.55.43-.34,1,.47.89,1.24,1.17,1.25,1.9,0,.9-1.53-.38-3.28-3.09-4.23-1-.34-.62-.63,1-.8,2.91-.32,13.25-.66,14-.46a25.66,25.66,0,0,0,3.74-.16c2.58-.24,3.13,0,2.7,1.29-.35,1,0,1.58.94,1.55,1.32-.05,2.9,2.51,3.32,5.37.22,1.47,4,2.19,5.39,1,.82-.68,1.42-.5,1.88.59.37.87,1.13,1.57,1.68,1.55s.7-.74.33-1.6c-1-2.42.13-3.56,2.46-2.42,1.84.89,2,.77,1.33-1.08-.53-1.45-.35-2,.58-1.86.78.14,1.19-.49,1-1.51s.22-1.77.93-1.8c.93,0,.86-.34-.25-1s.84-.91,6.48-.8c4.41.09,8.46.21,9,.27a22.53,22.53,0,0,0,4.47-.66c3.81-.84,4-.86,8.67-.6,4.1.22,4.78.92,3.48,3.6-.75,1.52-1.65,2-3,1.63-3-.82-2.31.36,1.08,1.95,3,1.4,6.59.88,5.47-.78s.49-1,2.71,1.1,2.15,2,.11,1.45a2.29,2.29,0,0,0-3.05,1.45c-1.38,2.83-1.18,3.62.52,2.1S341.47,52,342,56.16l.38,3.1-19.63.31c-15.46.24-19.87,0-20.79-1.09-1.38-1.65-3.46-1.76-3.4-.19,0,.63-.85.92-2,.67s-2.21-.1-2.44.32-5.21.72-11.05.69c-10-.07-10.7.05-12,2.11-.77,1.21-2,2.21-2.65,2.24-2.25.08-6.72-2.23-6.77-3.5,0-.69-1.3-1.27-2.81-1.29s-3.43-.11-4.26-.19-2.15-.19-2.93-.25S250.49,58.69,250.84,58.31Z"/><path class="cls-1" d="M306.7,45.36c-.29.84-.09,1.51.45,1.49s.94-.72.91-1.54C308,43.39,307.36,43.41,306.7,45.36Z"/><path class="cls-1" d="M319.13,44.33c-1,.65-1,1.6-.27,3.66s1.17,2.41,1.61,1.12a1.62,1.62,0,0,0-.65-2.1c-.87-.32-.8-.75.22-1.52C321.8,44.17,321,43.1,319.13,44.33Z"/><path class="cls-1" d="M323.91,45.21c-.05-1.37-.3-1.92-.55-1.23a3.83,3.83,0,0,0,.09,2.5C323.75,47.16,324,46.59,323.91,45.21Z"/><path class="cls-1" d="M307.91,54.67a4.8,4.8,0,0,1,2.79,1.41c.55.79.77.74.74-.17,0-1.79,4.09-3.39,5.69-2.2.71.53,1.28.71,1.27.4s1.24,0,2.78.76,2.92.92,3.09.32c.53-1.78,5.08-1.23,6.44.77s3.87,2.63,3.81,1a19.11,19.11,0,0,0-1.88-4.19c-1.29-2.33-1.93-2.83-2.12-1.66s-1.4,1.71-5,1.84c-6.82.26-8.23-.31-10-4-1.58-3.43-3.56-4.44-3.46-1.77a1.51,1.51,0,0,0,1.31,1.53c1,0,1,.14,0,.58a2.12,2.12,0,0,0-1.18,1.86c.07,1.8-2.41,2.71-3.83,1.39s-1.6-3-.2-2.21c.56.32,1,.1,1-.48s-.38-1-.79-1C305.26,49,304.79,54.2,307.91,54.67Z"/><path class="cls-1" d="M284.14,50c1.68.38,2.06.23,1.29-.48A2.55,2.55,0,0,0,283,49C282.3,49.24,282.77,49.68,284.14,50Z"/><path class="cls-1" d="M277.62,52c1.47-.05,2.68.35,2.7.9.06,1.51,1.76,1.14,2.31-.5s-1.49-2.6-4.49-1.9C274.9,51.21,274.6,52.07,277.62,52Z"/><path class="cls-1" d="M337.72,43.73C338.1,42,339.8,41.84,365.9,41c20.73-.65,28.18-.57,29.35.33s1.64,1,1.95-.08.91-1,2.84-.21,2,1.1.72,1.2a1.75,1.75,0,0,0-1.69,1.69c0,.86-.4,1.3-1,1s-1-.1-1,.48.72,1,1.54,1a1.51,1.51,0,0,1,1.56,1.44,1.41,1.41,0,0,0,1.3,1.47,18.69,18.69,0,0,1,3.57.49c1.57.36,2.2.13,2-.71a1.64,1.64,0,0,1,1.05-1.81c.94-.38,1.22-.05.85,1a1.63,1.63,0,0,0,1.16,2.15c.93.32,1.83.1,2-.49s1.16-1.1,2.2-1.14c1.26-.05,1.71.43,1.36,1.45s.18,1.5,2,1.43c3.22-.13,4.55,1.75,2.43,3.43A2.54,2.54,0,0,0,419.2,58c1.13,2.63-1,1.88-3.48-1.25-1.52-1.9-1.88-2.93-1.05-3s.86-.31-.2-.93a2.57,2.57,0,0,0-2.27-.34c-1.52,1-.6,4.35,1.49,5.37,1.17.57,1.89,1.3,1.59,1.62s-1.27,0-2.16-.66c-1.22-.94-1.88-1-2.72,0-1.78,1.91-5.81,1.56-7.9-.68-1.06-1.13-1.7-2.45-1.42-2.94s-.41-.86-1.53-.82c-1.48.06-1.87-.38-1.45-1.61s.2-1.44-.56-.92a2.18,2.18,0,0,0,.59,4c1.38.47,1.44.81.36,2.22s-3,1.64-13.82,1.53c-6.89-.07-14.57-.3-17.05-.52s-5.46-.35-6.6-.3-2.11-.55-2.14-1.39c0-1.06.56-1.32,2-.91,1.84.5,1.93.38.71-1-.76-.85-1.12-2-.81-2.57.6-1.06-2.93-3.29-3.77-2.38-.26.28-.84-.95-1.28-2.74-.71-2.89-.91-3-1.79-1.37s-1.06,1.77-2.24-.39c-1.06-1.94-2.06-2.28-6.44-2.2-2.85.06-5,.37-4.77.71s-.41.7-1.41.81C337.83,45.51,337.43,45,337.72,43.73Z"/><path class="cls-1" d="M373.84,44.33c-.73-1.07-1.7-1.94-2.15-1.92s-.52.47-.16,1,.07,1-.65,1.09-.39.48.73.91C374.8,46.65,375.26,46.43,373.84,44.33Z"/><path class="cls-1" d="M385,42.91c-1.16,0-1.82.52-1.46,1.06a1.65,1.65,0,0,0,3-.12C386.88,43.29,386.19,42.87,385,42.91Z"/><path class="cls-1" d="M394.18,45.11a1.15,1.15,0,0,0-1.54.5c-.33.57.11,1,1,1C395.36,46.52,395.6,45.91,394.18,45.11Z"/><path class="cls-1" d="M393.29,50.6c.53,0,.68-.7.33-1.51-.81-1.89-1.43-1.87-1.36,0C392.29,50,392.75,50.62,393.29,50.6Z"/><path class="cls-1" d="M382.42,52.81A6,6,0,0,1,385,54.44c.6.69,2.58,1.43,4.41,1.65s3,.1,2.61-.26a2.54,2.54,0,0,0-1.37-.67c-2.31-.09-5.23-1.6-5.27-2.73,0-.89-.79-1.12-2.25-.67S381.39,52.54,382.42,52.81Z"/><path class="cls-1" d="M371.06,57.34c2.82-.18,4.22-.92,7.06-3.77l2.5-2.49-2.61.1c-1.83.07-2.44.51-2,1.48a1.69,1.69,0,0,1-.34,2c-.51.34-.9-.11-.86-1a1.89,1.89,0,0,0-1.72-1.84c-1.34-.17-1.64.24-1.15,1.6a2.34,2.34,0,0,1-1.1,2.93C369.18,57.39,369.19,57.45,371.06,57.34Z"/><path class="cls-1" d="M365.25,57.1c1.44.49,1.55.37.54-.58-.71-.66-1.52-.93-1.82-.61S364.25,56.76,365.25,57.1Z"/><path class="cls-1" d="M422.52,56.53c1.54-.9,2.14-.75,3,.79a9.25,9.25,0,0,1,1.14,2.53c0,.34-.55.29-1.26-.12a5.08,5.08,0,0,0-3-.38C420.07,59.83,420.14,57.92,422.52,56.53Z"/><path class="cls-1" d="M428.63,58.28a1,1,0,0,1,1,1c0,.58-.42.8-1,.48C427.38,59,427.35,58.33,428.63,58.28Z"/><path class="cls-1" d="M432.54,58.13c1.51-.06,1.84-.51,1.3-1.8-.63-1.51-.5-1.56,1-.41,1.32,1,1.73,1,1.69.06s.37-.93,1.67.06,1.79,1,2.08.05a2.52,2.52,0,0,1,2.29-1.34c1.06,0,1.92-.41,1.92-.82s1.07-1.6,2.38-2.63c1.82-1.42,2.26-1.52,1.88-.39s.09,1.34,1.81,1c1.27-.29.78.13-1.08.93-2.71,1.17-3,1.59-1.63,2.07,2.41.82,8.8-.52,10.57-2.23a2.48,2.48,0,0,1,3.23-.48c1.21.61,1.78.57,1.75-.14a1,1,0,0,1,1-1.08c.55,0,1,.66,1.06,1.52s.5,1.26,1,.9,1-.18,1,.4c.05,1.25-1.61,1.48-2.37.35-.29-.44-2.16-.54-4.16-.23-3,.47-3.41.78-2.25,1.83,1.88,1.7,7.52,2.87,6.49,1.35-.41-.62-.23-1.14.42-1.17s.94.62.66,1.43c-.35,1,0,1.27,1.09.79s1.36-.29.87.59a2.06,2.06,0,0,1-2.38.7c-.92-.32-9-.29-17.88.06-9.25.35-16.48.22-16.84-.31S431.42,58.17,432.54,58.13Z"/><path class="cls-1" d="M447.74,57c.38.39,2.33.8,4.35.91,3.28.18,3.47.06,1.82-1.07-1-.71-2.24-.88-2.7-.38a2.7,2.7,0,0,1-2.49.36C447.81,56.5,447.37,56.58,447.74,57Z"/></g></g></svg>