<svg xmlns="http://www.w3.org/2000/svg" viewBox="0 0 140.97 249.82"><defs><style>.cls-1{fill:#fff;stroke:#000;stroke-miterlimit:10;stroke-width:1.5px;}</style></defs><g id="Livello_2" data-name="Livello 2"><g id="Livello_1-2" data-name="Livello 1"><path class="cls-1" d="M1,179.2H1c2.49,17.88,12.3,33.91,17,48.72l.09,0,7.42,21.18h43v0h44.74l8-21.18.1,0c5-14.8,15.52-30.82,18.19-48.69h.09c4-23.79-11.46-67.39-14.37-93.55-4.53-40.31-4.14-83.5-53.78-84.9h0c-49.54,1.4-50,43.42-54.51,83.68-3,26.35-17,58.39-16,85.43A58.1,58.1,0,0,0,1,179.2Z"/><line class="cls-1" x1="1.29" y1="181.18" x2="139.29" y2="181.18"/></g></g></svg>