<svg xmlns="http://www.w3.org/2000/svg" viewBox="0 0 238 223"><defs><style>.cls-1,.cls-3{fill:none;}.cls-1,.cls-2{stroke:#000;stroke-miterlimit:10;}.cls-2{fill:#c4ddda;}</style></defs><g id="Livello_2" data-name="Livello 2"><g id="Livello_1-2" data-name="Livello 1"><circle id="_1" data-name="1" class="cls-1" cx="119" cy="111.5" r="102.5"/><polygon class="cls-2" points="192.35 164.29 192.35 171.34 45.65 171.34 45.65 164.29 50.94 164.29 50.94 157.24 187.06 157.24 187.06 164.29 192.35 164.29"/><rect class="cls-2" x="45.65" y="64.14" width="146.69" height="7.05"/><polygon class="cls-2" points="192.06 64.04 45.95 64.04 119 23.66 192.06 64.04"/><polygon class="cls-2" points="98.77 76.73 98.77 151.35 102.06 151.35 102.06 157.04 80.11 157.04 80.11 151.35 83.77 151.35 83.77 76.73 80.11 76.73 80.11 71.04 102.06 71.04 102.06 76.73 98.77 76.73"/><polygon class="cls-2" points="126.69 76.73 126.69 151.35 129.98 151.35 129.98 157.04 108.02 157.04 108.02 151.35 111.68 151.35 111.68 76.73 108.02 76.73 108.02 71.04 129.98 71.04 129.98 76.73 126.69 76.73"/><polygon class="cls-2" points="154.61 76.73 154.61 151.35 157.9 151.35 157.9 157.04 135.94 157.04 135.94 151.35 139.6 151.35 139.6 76.73 135.94 76.73 135.94 71.04 157.9 71.04 157.9 76.73 154.61 76.73"/><polygon class="cls-2" points="182.52 76.73 182.52 151.35 185.81 151.35 185.81 157.04 163.86 157.04 163.86 151.35 167.52 151.35 167.52 76.73 163.86 76.73 163.86 71.04 185.81 71.04 185.81 76.73 182.52 76.73"/><polygon class="cls-2" points="70.86 76.73 70.86 151.35 74.14 151.35 74.14 157.04 52.19 157.04 52.19 151.35 55.85 151.35 55.85 76.73 52.19 76.73 52.19 71.04 74.14 71.04 74.14 76.73 70.86 76.73"/><rect class="cls-3" width="238" height="223"/></g></g></svg>