<svg xmlns="http://www.w3.org/2000/svg" viewBox="0 0 194.15 309.07"><defs><style>.cls-1,.cls-2{fill:#fff;}.cls-2{stroke:#000;stroke-miterlimit:10;stroke-width:1.5px;}</style></defs><g id="Livello_2" data-name="Livello 2"><g id="Livello_1-2" data-name="Livello 1"><rect class="cls-1" x="1.15" width="193" height="308"/><path class="cls-2" d="M145.7,252.56,27.47,308c-4.09-18.07-7.37-37.18-11.76-50.44-12.85-38.77-31.4-78.09,13.4-100.28l.05,0c45.88-19.58,64,18.63,85.07,53.56,8.21,13.57,20.83,27.32,31.91,41.54"/><path class="cls-2" d="M48,192.84c-2.82,12.23-4.91,24.35-4.42,35.59a57.61,57.61,0,0,0,.21,9.4c2.62,18,12.62,34,17.4,48.94l.1,0L68.87,308l43.3-.29v0l45-.32L165.07,286l.11,0c4.93-14.94,15.4-31.13,18-49.15h.08c1.85-11.54-.86-27.68-4.52-44.26H48.19"/></g></g></svg>