<svg xmlns="http://www.w3.org/2000/svg" viewBox="0 0 238 223"><defs><style>.cls-1,.cls-3{fill:none;}.cls-1,.cls-2{stroke:#000;stroke-miterlimit:10;}.cls-2{fill:#e8cdda;}</style></defs><g id="Livello_2" data-name="Livello 2"><g id="Livello_1-2" data-name="Livello 1"><path class="cls-1" d="M196.5,111.5A77.5,77.5,0,1,1,119,34c2.16,0,4.3.08,6.41.26a77,77,0,0,1,24.1,6A75.7,75.7,0,0,1,158,44.55a77.5,77.5,0,0,1,38.46,67Z"/><polygon class="cls-2" points="71.14 140.59 57.81 140.59 57.81 144.89 64.47 148.01 71.14 153.73 71.14 165.43 71.14 169.59 53.82 167.36 40.84 169.59 39.66 174.95 39.66 180.25 36.22 186.88 38.18 193.03 39.66 198.46 44.02 198.46 48.26 198.46 49 201.71 51.95 203.88 54.75 203.88 58.35 201.35 67.2 201.35 69.17 197.74 72.61 197.74 74.58 193.03 77.53 192.67 74.58 187.61 79.01 182.54 80.48 180.38 86.38 179.29 88.84 176.03 88.84 171.04 92.78 168.44 98.68 169.16 101.63 170.61 104.58 169.52 107.29 166.96 110.97 165.91 112.94 163.74 115.89 164.46 118.84 165.91 121.3 170.97 125.24 174.59 128.68 177.48 132.12 179.29 134.58 179.29 135.56 181.46 137.53 182.18 139.01 182.91 140.97 186.16 142.45 186.52 143.93 188.69 144.91 190.86 142.45 195.2 143.93 195.93 146.39 191.95 147.86 189.42 145.89 186.88 147.86 183.54 150.32 183.99 152.29 185.44 153.27 184.35 145.4 179.65 143.44 178.21 144.91 177.12 139.5 176.03 136.06 173.86 134.58 171.33 133.6 168.44 127.7 164.82 127.7 161.21 127.7 157.95 132.61 156.14 133.6 157.95 134.58 160.84 137.04 158.67 139.01 160.84 139.01 162.65 140.48 164.1 139.99 165.55 143.93 167.72 148.35 168.8 149.83 170.61 154.25 173.14 157.21 176.03 158.19 177.84 158.19 181.26 158.19 184.46 160.65 186.16 161.63 188.69 163.6 190.14 165.07 190.14 165.07 191.72 166.06 193.4 168.03 193.4 169.99 193.4 171.47 193.4 172.94 194.12 173.93 195.2 176.88 195.93 176.88 194.14 172.45 191.59 172.94 189.78 173.44 188.69 171.96 186.52 170.98 184.35 171.96 182.54 173.44 183.63 175.9 183.99 176.88 183.21 177.37 181.82 182.29 181.1 185.73 181.82 189.17 182.91 191.63 180.74 193.11 177.48 193.11 176.28 192.13 173.86 193.11 172.24 193.11 169.13 196.55 168.44 197.53 162.29 200.49 161.21 200.49 158.65 194.58 157.23 194.58 153.97 194.58 150.35 191.14 144.93 187.7 143.12 186.72 145.29 180.81 146.38 175.4 144.93 170.98 142.76 170.98 138.42 173.93 132.63 177.37 130.46 176.88 127.57 174.91 123.95 174.91 120.7 172.94 119.61 176.39 116.72 174.42 109.48 180.52 109.48 185.24 102.97 188.68 97.19 191.91 97.19 194.58 95.02 192.13 89.95 193.6 86.7 190.65 82.72 192.62 75.12 186.72 71.51 180.81 72.95 174.42 75.49 173.44 82.36 175.4 84.17 175.4 87.78 171.96 88.51 167.04 87.42 165.07 91.76 164.58 98.27 165.57 102.61 161.63 104.42 158.19 106.95 154.25 106.23 152.29 104.42 145.4 106.59 140.97 109.12 137.04 110.21 132.61 109.12 128.68 106.59 124.75 109.85 121.79 108.4 118.35 105.05 116.38 100.8 118.35 97.72 119.33 95.02 121.79 93.93 118.35 89.86 119.83 86.34 114.91 85.97 111.47 92.12 109.99 96.46 111.47 100.08 112.94 102.25 114.42 106.95 113.85 111.11 111.96 113.46 108.59 111.11 106.06 114.91 101.63 112.74 99.66 116 97.2 118.89 93.76 122.14 90.32 125.76 84.91 127.57 83.43 130.46 80.97 134.08 78.02 135.16 77.25 137.7 72.12 136.61 71.14 140.59"/><polygon class="cls-2" points="56.14 79.28 52.69 82.9 51.22 89.05 52.2 92.3 53.68 97.08 56.14 95.97 56.14 98.44 57.12 100.62 55.15 103.88 60.69 103.88 62.04 103.16 62.66 103.88 62.04 105.69 63.51 107.86 64.99 108.22 63.51 113.64 58.1 116.07 59.58 117.26 59.09 119.07 54.66 121.96 55.64 123.77 58.1 123 61.15 123.77 62.53 124.86 64.99 123.85 64.5 126.66 59.76 126.66 57.61 128.84 53.68 132.81 54.99 132.81 58.59 131 59.58 131.37 61.05 131.73 62.04 129.56 65.97 129.2 67.94 129.92 69.91 128.84 75.32 128.84 79.74 128.11 81.71 125.94 79.25 125.58 78.27 123.77 80.23 123.41 81.71 121.71 83.19 119.07 82.2 117.26 79.74 116.54 76.79 116.9 77.28 114.37 75.81 110.39 74.83 107.86 71.87 106.41 69.42 104.6 69.91 100.62 67.2 98.19 65.48 96.28 64.99 93.75 66.46 91.58 67.94 87.24 66.46 85.07 62.04 85.79 59.09 86.16 59.58 82.9 62.53 80.73 63.13 79.28 56.14 79.28"/><polygon class="cls-2" points="44.33 101.35 40.4 104.96 41.38 106.77 39.91 108.94 36.22 107.77 34.5 109.67 34.5 112.82 37.45 114.37 37.94 115.81 37.94 119.07 35.48 119.79 34.5 122.4 36.22 123.59 38.7 123.59 44.33 121.42 44.82 120.52 49.25 119.79 51.22 114.61 49.25 109.3 47.28 107.13 49.74 108.22 52.2 106.77 50.23 102.07 44.33 101.35"/><polygon class="cls-2" points="129.42 195.38 132.86 194.66 133.87 195.38 140.98 194.66 139.25 197.56 140.24 199.36 139.25 200.81 136.3 199.36 133.84 199 131.38 197.19 129.42 197.03 129.42 195.38"/><polygon class="cls-2" points="111.71 182 114.17 181.28 114.66 180.19 116.14 180.56 117.12 183.29 117.12 188.06 116.14 189.6 114.42 189.6 113.68 191.04 111.71 187.98 111.71 182"/><polygon class="cls-2" points="113.19 173.68 115.65 172.24 116.14 174.77 116.14 177.91 114.42 177.91 113.19 173.68"/><polygon class="cls-2" points="165.81 195.75 166.75 194.66 167.78 195.02 168.27 193.94 172.7 195.38 174.56 197.74 173.68 198.28 172.21 197.19 172.21 198.64 173.19 201.17 172.7 201.53 172.05 200.81 171.12 200.81 171.05 201.53 170.19 201.53 169.25 199.72 168.27 200.45 167.29 199.36 167.78 197.92 165.81 195.75"/><path class="cls-2" d="M166.55,32.45l-2,2.52-2.46,4.35-3.93,1.45-3.44,4.48-5.42,3.11-.49,4-2.46,6.87,4.93,5.43,3.44,5.42L152.29,73h-3.94l1,4-3.93,2.36v9.58l-1.48,6.26-3.44-1.2-3.93,3.26.41,4.16h-6.71l-.58-4.89V91.77l-3.44-4.71-1.49-6.87-.49-4.35-3.48-4.33v3.63L115.4,76.2l-3,4.35-5.16,2.82-2.7-2.46-3.77-1.62,1.3-5.61-2.58-2.17,2.88-4.85h-4.8V61.49l3.51-3.36-3.51-3.62h5l-1.48-3.26,6.16-4.82,6.14-5.66,6.89,1.8,1.47-4-3.44,1.95V38l6.39-7.69,5.42-6.87,1.16-4.29a108.34,108.34,0,0,1,34,8.44l-.77,1.63Z"/><path class="cls-2" d="M203.5,54.85,202,57l-8.86,7.6-3.44-.73-6.88,3-8.85,1-2.47-2.17L167,63.55l.49-5.42-1-5.43V46.55l3.93-1.45V41.84l6.93-8.2A109.72,109.72,0,0,1,203.5,54.85Z"/><rect class="cls-3" width="238" height="223"/></g></g></svg>