<svg xmlns="http://www.w3.org/2000/svg" viewBox="0 0 193 309.24"><defs><style>.cls-1,.cls-2{fill:#fff;}.cls-2{stroke:#000;stroke-miterlimit:10;stroke-width:1.5px;}</style></defs><g id="Livello_2" data-name="Livello 2"><g id="Livello_1-2" data-name="Livello 1"><rect class="cls-1" width="193" height="308"/><path class="cls-2" d="M43.86,255.71h0c1.87,13.51,9.28,25.62,12.8,36.81l.07,0,5.61,16H94.81v0h33.8l6-16,.08,0c3.77-11.18,11.72-23.28,13.74-36.78h.06c3-18-8.65-50.9-10.85-70.66C134.23,154.6,134.52,122,97,120.92h0c-37.42,1-37.79,32.8-41.17,63.21C53.6,204,43,228.24,43.74,248.65A43.65,43.65,0,0,0,43.86,255.71Z"/><path class="cls-2" d="M30.21,192.84c-2.82,12.23-4.91,24.35-4.42,35.59a56.51,56.51,0,0,0,.21,9.4c2.61,18,12.61,34,17.39,48.94l.11,0L51.1,308l43.29-.29v0l45.05-.32L147.3,286l.11,0c4.93-14.94,15.4-31.13,18-49.15h.08c1.85-11.54-.87-27.68-4.52-44.26H30.42"/></g></g></svg>