<?xml version="1.0" encoding="utf-8"?>
<!-- Generator: Adobe Illustrator 25.2.1, SVG Export Plug-In . SVG Version: 6.00 Build 0)  -->
<svg version="1.1" xmlns="http://www.w3.org/2000/svg" xmlns:xlink="http://www.w3.org/1999/xlink" x="0px" y="0px"
	 viewBox="0 0 141 249.8" style="enable-background:new 0 0 141 249.8;" xml:space="preserve">
<style type="text/css">
	.st0{opacity:0.62;fill:none;stroke:#E8CDDA;stroke-width:2;stroke-miterlimit:10;}
	.st1{opacity:0.62;fill:#E8CDDA;stroke:#E8CDDA;stroke-miterlimit:10;}
	.st2{opacity:0.62;}
	.st3{fill:#E8CDDA;stroke:#E8CDDA;stroke-miterlimit:10;}
	.st4{fill:none;stroke:#000000;stroke-width:1.5;stroke-miterlimit:10;}
</style>
<g id="Livello_2">
	<path class="st0" d="M123.3,111.9c-1.1,0.6-3.6,2.1-5.1,5.1c-0.6,1.3-2,4-0.8,6.7c0.8,1.9,2.5,2.9,3.4,3.4c1.1,0.6,2.7,1.5,4.2,0.8
		c1.1-0.5,1.6-1.4,1.7-1.7c0.8-1.8-0.1-4.2-1.7-5.1c-0.2-0.1-1.5-0.7-2.5,0c-0.8,0.6-0.8,1.6-0.8,1.7c0,0.1,0,1.1,0.8,1.7"/>
	<path class="st0" d="M129,151.8c-2.2,1.7-5,2.8-8,3.2"/>
	<circle class="st0" cx="70.9" cy="53.4" r="33.7"/>
	<path class="st0" d="M12.8,135.9c5.2,1.1,13.9,2.2,23.6-0.8c24.2-7.6,32.1-33.6,32.8-36.2"/>
	<path class="st0" d="M128.9,135.9c-5.2,1.1-13.9,2.2-23.6-0.8c-24.2-7.6-32.1-33.6-32.8-36.2"/>
	<path class="st0" d="M61.7,87.9c0,1.1,0.1,4.2,2.5,7c0.6,0.7,3.8,4.4,8.4,3.9c4.3-0.5,6.4-4.2,6.7-4.7c1.5-2.8,1-5.4,0.8-6.3"/>
	<path class="st0" d="M41.5,111.4c0-2.4,0.3-10,5.9-16c3.9-4.2,8.4-5.4,13.5-6.7c4.7-1.3,16.2-4.3,26.9,1.7c5.7,3.2,8.7,7.6,9.3,8.4
		c3.4,5.1,4.1,10.2,4.2,12.6"/>
	<path class="st0" d="M41.5,111.4c2.2,0.5,5.4,0.9,9.3,0.8c4.5-0.1,8.3-0.2,11.8-2.5c4.9-3.2,6.3-8.8,6.7-10.9"/>
	<path class="st0" d="M101.6,111.1c-2.2,0.5-5.4,0.9-9.3,0.8c-4.5-0.1-8.3-0.2-11.8-2.5c-4.9-3.2-6.3-8.8-6.7-10.9"/>
	<g>
		<circle class="st1" cx="71.8" cy="13.8" r="1.7"/>
		<g class="st2">
			<circle class="st3" cx="35.6" cy="34.8" r="1.7"/>
			<circle class="st3" cx="50.7" cy="18.9" r="1.7"/>
			<circle class="st3" cx="92.8" cy="18.9" r="1.7"/>
			<circle class="st3" cx="108" cy="34.8" r="1.7"/>
			<circle class="st3" cx="109.6" cy="55.9" r="1.7"/>
			<circle class="st3" cx="32.2" cy="55.9" r="1.7"/>
			<circle class="st3" cx="37.3" cy="76.9" r="1.7"/>
			<circle class="st3" cx="104.6" cy="76.9" r="1.7"/>
			<circle class="st3" cx="34.7" cy="122.4" r="1.7"/>
			<circle class="st3" cx="109.6" cy="122.4" r="1.7"/>
			<circle class="st3" cx="71.8" cy="123.2" r="1.7"/>
			<circle class="st3" cx="52.4" cy="135" r="1.7"/>
			<circle class="st3" cx="89.4" cy="135" r="1.7"/>
			<circle class="st3" cx="22.1" cy="144.3" r="1.7"/>
			<circle class="st3" cx="121.4" cy="144.3" r="1.7"/>
			<circle class="st3" cx="28.8" cy="167" r="1.7"/>
			<circle class="st3" cx="113" cy="167" r="1.7"/>
			<circle class="st3" cx="47.4" cy="183" r="1.7"/>
			<circle class="st3" cx="96.2" cy="183" r="1.7"/>
			<circle class="st3" cx="71.8" cy="189.7" r="1.7"/>
		</g>
	</g>
	<path class="st0" d="M23.8,87.9c0.5-0.6,1.6-1.8,3.4-2.5c2.6-1,4.9-0.4,5.9,0c2.5,0.9,3.7,2.7,4.2,3.4c0.6,0.9,1.8,2.6,1.7,5.1
		c-0.2,3-2.2,4.8-2.5,5.1c-0.5,0.4-2,1.7-4.2,1.7c-0.8,0-3.1,0-4.2-1.7c-0.7-1-1.1-2.9,0-4.2c1-1.2,2.7-1.6,4.2-0.8"/>
	<path class="st0" d="M18.3,111.9c1.1,0.6,3.6,2.1,5.1,5.1c0.6,1.3,2,4,0.8,6.7c-0.8,1.9-2.5,2.9-3.4,3.4c-1.1,0.6-2.7,1.5-4.2,0.8
		c-1.1-0.5-1.6-1.4-1.7-1.7c-0.8-1.8,0.1-4.2,1.7-5.1c0.2-0.1,1.5-0.7,2.5,0c0.8,0.6,0.8,1.6,0.8,1.7c0,0.1,0,1.1-0.8,1.7"/>
	<path class="st0" d="M26.7,111c-0.2-0.2-1-1.1-0.8-2.5c0.1-0.9,0.6-2.1,1.7-2.5c1.5-0.7,3.1,0.6,3.4,0.8c1.7,1.4,1.7,3.6,1.7,4.2
		c0,0.7-0.1,2.6-1.7,4.2c-1.3,1.3-2.8,1.6-3.4,1.7h-2.9l-2.3-1.6"/>
	<path class="st0" d="M117.8,87.9c-0.5-0.6-1.6-1.8-3.4-2.5c-2.6-1-4.9-0.4-5.9,0c-2.5,0.9-3.7,2.7-4.2,3.4
		c-0.6,0.9-1.8,2.6-1.7,5.1c0.2,3,2.2,4.8,2.5,5.1c0.5,0.4,2,1.7,4.2,1.7c0.8,0,3.1,0,4.2-1.7c0.7-1,1.1-2.9,0-4.2
		c-1-1.2-2.7-1.6-4.2-0.8"/>
	<path class="st0" d="M114.9,111c0.2-0.2,1-1.1,0.8-2.5c-0.1-0.9-0.6-2.1-1.7-2.5c-1.5-0.7-3.1,0.6-3.4,0.8
		c-1.7,1.4-1.7,3.6-1.7,4.2c0,0.7,0.1,2.6,1.7,4.2c1.3,1.3,2.8,1.6,3.4,1.7h2.9l2.3-1.6"/>
	<path class="st0" d="M53.7,151.4c-0.6-0.6-2.4-2.1-5.1-2.5c-3.3-0.5-5.8,1.1-6.7,1.7c-1.1,0.7-3.4,2.2-4.2,5.1
		c-0.7,2.6-0.1,5.5,1.7,7.6c0.4,0.4,2.2,2.5,5.1,2.5c0.6,0,2.8,0,4.2-1.7c0.1-0.1,1.6-2,0.8-4.2c-0.1-0.2-0.7-2.1-2.5-2.5
		c-0.7-0.2-1.3-0.1-1.7,0"/>
	<path class="st0" d="M35.1,148.1c0.7-0.7,1.1-1.7,0.8-2.5c-0.4-1.3-2-1.6-2.5-1.7c-0.3-0.1-2.1-0.4-3.4,0.8
		c-1.1,1.1-0.9,2.6-0.8,3.4c0.2,2.1,1.6,4,3.4,5.1c1.7,1,3.5,0.9,4.2,0.8l2.4-1.2"/>
	<path class="st0" d="M88.7,151.8c0.6-0.6,2.4-2.1,5.1-2.5c3.3-0.5,5.8,1.1,6.7,1.7c1.1,0.7,3.4,2.2,4.2,5.1
		c0.7,2.6,0.1,5.5-1.7,7.6c-0.4,0.4-2.2,2.5-5.1,2.5c-0.6,0-2.8,0-4.2-1.7c-0.1-0.1-1.6-2-0.8-4.2c0.1-0.2,0.7-2.1,2.5-2.5
		c0.7-0.2,1.3-0.1,1.7,0"/>
	<path class="st0" d="M107.2,148.5c-0.7-0.7-1.1-1.7-0.8-2.5c0.4-1.3,2-1.6,2.5-1.7c0.3-0.1,2.1-0.4,3.4,0.8
		c1.1,1.1,0.9,2.6,0.8,3.4c-0.2,2.1-1.6,4-3.4,5.1c-1.7,1-3.5,0.9-4.2,0.8l-2.4-1.2"/>
	<path class="st0" d="M57.9,148.9c-0.4-0.4-1.3-1.2-1.7-2.5c-0.2-0.6-0.4-1.5,0-2.5c0.1-0.2,0.5-1.2,1.7-1.7c1-0.4,1.9-0.2,2.5,0
		c0.8,0.2,1.3,0.6,1.7,0.8"/>
	<path class="st0" d="M62,142.9c-0.3-0.5-0.9-1.5-0.8-2.9c0-0.6,0.1-1.6,0.8-2.4c0.1-0.1,0.9-1,2.1-1.1c1.1-0.1,1.9,0.4,2.4,0.8
		c0.7,0.5,1.1,1,1.3,1.3"/>
	<path class="st0" d="M68,139.1c0-0.6,0-1.8,0.8-2.9c0.3-0.5,0.8-1.3,1.9-1.5c0.2,0,1.3-0.3,2.4,0.4c1,0.6,1.4,1.5,1.7,2.1
		c0.4,0.8,0.5,1.5,0.5,1.9"/>
	<path class="st0" d="M85,149c0.4-0.4,1.3-1.2,1.7-2.5c0.2-0.6,0.4-1.5,0-2.5c-0.1-0.2-0.5-1.2-1.7-1.7c-1-0.4-1.9-0.2-2.5,0
		c-0.8,0.2-1.3,0.6-1.7,0.8"/>
	<path class="st0" d="M80.9,143.1c0.3-0.5,0.9-1.5,0.8-2.9c0-0.6-0.1-1.6-0.8-2.4c-0.1-0.1-0.9-1-2.1-1.1c-1.1-0.1-1.9,0.4-2.4,0.8
		c-0.7,0.5-1.1,1-1.3,1.3"/>
	<path class="st0" d="M54.2,153.3c-0.2-0.6-0.4-1.5,0-2.5c0.1-0.2,0.5-1.2,1.7-1.7c0.6-0.2,1.2-0.3,1.6-0.2"/>
	<path class="st0" d="M88.6,153.9c0.2-0.6,0.4-1.5,0-2.5c-0.1-0.2-0.5-1.2-1.7-1.7c-0.6-0.2-1.2-0.3-1.6-0.2"/>
	<path class="st0" d="M53.7,154.8c-0.6,1,0.2,2.4,1.7,5.1c0.8,1.4,1.4,2.1,2.5,3.4c0.8,0.9,3.3,1.7,3.4,1.7c0.6-0.1,7.9,1.6,9.3,0
		c1.2-1.4-1.8-5.8-2.5-6.7c-0.9-1.4-1.8-2.5-3.4-3.4c-1.3-0.7-2.6-0.8-5.1-0.8C56,153.8,54.3,153.8,53.7,154.8z"/>
	<path class="st0" d="M89.3,154.5c0.6,1-0.2,2.4-1.7,5.1c-0.8,1.4-0.8,1.6-1.9,2.9c-0.8,0.9-1.5,1.5-2.5,1.7
		c-0.4,0.1-1.3,0.5-1.4,0.5c-0.6-0.1-7.9,1.6-9.3,0c-1.2-1.4,1.8-5.8,2.5-6.7c0.9-1.4,1.8-2.5,3.4-3.4c1.3-0.7,2.6-0.8,5.1-0.8
		C86.9,153.5,88.7,153.4,89.3,154.5z"/>
	<path class="st0" d="M70.9,143.4c-0.7,0.7-1.7,1.8-3,3.2c-1.6,1.6-2.2,2.1-3,3.2c-0.6,0.9-1.4,2.2-2,4.2"/>
	<path class="st0" d="M70.9,143.4c0.7,0.7,1.8,1.8,3.2,3.1c1.7,1.6,2.4,2.1,3.2,3.1c0.7,0.9,1.5,2.2,2.1,4.2"/>
	<path class="st0" d="M71.5,172.9c-2.4,0-4.6-3.2-4.4-7.2c2.8,0,5.6,0,8.3,0c0.2,0,0.3,0,0.5,0c0,0.2,0,0.4,0,0.7
		C75.8,169.1,74.2,172.9,71.5,172.9z"/>
	<path class="st0" d="M34.3,176.7c-1.1,5.5,0.9,11.1,5.1,14.3c5.2,4,13,3.8,18.5-0.8"/>
	<path class="st0" d="M107.7,178.7c1.1,5.5-0.9,11.1-5.1,14.3c-5.2,4-13,3.8-18.5-0.8"/>
	<path class="st0" d="M57.7,190.5c2,7,8.3,11.5,14.9,11.1c5.3-0.3,10-3.9,12.2-9"/>
	<path class="st0" d="M121,155c3.7,4.2,4.8,10,2.8,14.9c-2.5,6.1-9.3,9.8-16.4,8.6"/>
	<path class="st0" d="M20.4,153c-3.7,4.2-4.8,10-2.8,14.9c2.5,6.1,9.3,9.8,16.4,8.6"/>
	<path class="st0" d="M12,149.3c2.4,1.9,5.3,3.2,8.4,3.8"/>
</g>
<g id="Livello_1">
	<g id="Livello_2_1_">
		<g id="Livello_1-2">
			<path class="st4" d="M1,179.2L1,179.2c2.5,17.9,12.3,33.9,17,48.7h0.1l7.4,21.2h43l0,0h44.7l8-21.2h0.1
				c5-14.8,15.5-30.8,18.2-48.7h0.1c4-23.8-11.5-67.4-14.4-93.6c-4.5-40.3-4.1-83.5-53.8-84.9l0,0C21.9,2.2,21.5,44.2,17,84.5
				c-3,26.3-17,58.4-16,85.4C0.7,173,0.7,176.1,1,179.2z"/>
		</g>
	</g>
</g>
</svg>
