<svg xmlns="http://www.w3.org/2000/svg" viewBox="0 0 238 223"><defs><style>.cls-1,.cls-2{fill:none;}.cls-1,.cls-3{stroke:#000;stroke-miterlimit:10;}.cls-3{fill:#c4ddda;}</style></defs><g id="Livello_2" data-name="Livello 2"><g id="Livello_1-2" data-name="Livello 1"><circle id="_1" data-name="1" class="cls-1" cx="119" cy="111.5" r="102.5"/><rect class="cls-2" width="238" height="223"/><path class="cls-3" d="M189.18,169.82H48.82a23.26,23.26,0,0,1,6.51-12.61c4.57-4.39,10.23-7.15,16.11-9.53s11.64-4.5,17.37-6.92a44.64,44.64,0,0,0,7.41-4c5-3.4,8.29-7.8,8-14-.15-4,.14-7.92,0-11.87a4.48,4.48,0,0,0-1.22-3.13C98.12,103.59,96.41,98,95.2,92.3c-.49-2.31-4-20-4.8-21.78-2.73-6.33-3.68-12.88-2-19.59C91.31,39.2,99.53,32.3,111.34,29c3.57-1,7.36-1.3,11-1.92A2,2,0,0,1,125,28.52a27.47,27.47,0,0,0,1.37,3,4.3,4.3,0,0,0,4.15,2.78c11.51-.23,17.17,8.58,18.86,17.2,1.33,6.82,1.45,13.57-2.41,19.89-1.08,1.77-4,18.73-4.55,20.68-1.12,3.86-2.57,7.65-4,11.42a5.14,5.14,0,0,1-1.71,2.51c-3,2-3.2,4.76-3,7.82q.32,5.58.31,11.17a11.37,11.37,0,0,0,4.88,9.26,64.29,64.29,0,0,0,11.47,7c5.71,2.64,11.83,4.47,17.55,7.08a84.88,84.88,0,0,1,12.78,7.23C185.61,158.93,188,164,189.18,169.82Z"/><path class="cls-3" d="M126.64,176.51l4.78,4.17c-3.23,2.87-6.39,3.87-7.3,3S124.1,179.71,126.64,176.51Z"/><path class="cls-3" d="M131.19,181.54l-5.37-4.7,45.44-52a3.59,3.59,0,0,1,5.37,4.7Z"/><line class="cls-3" x1="151.9" y1="147.01" x2="157.28" y2="151.71"/><line class="cls-3" x1="139.4" y1="161.31" x2="144.77" y2="166.01"/><path class="cls-3" d="M162.6,138.38a1.58,1.58,0,0,1-2.24.15,1.6,1.6,0,0,1-.15-2.24l11.49-13.14a2.07,2.07,0,0,1,1.72.45,2,2,0,0,1,.67,1.64Z"/></g></g></svg>