<?xml version="1.0" encoding="utf-8"?>
<!-- Generator: Adobe Illustrator 25.2.1, SVG Export Plug-In . SVG Version: 6.00 Build 0)  -->
<svg version="1.1" id="Livello_1" xmlns="http://www.w3.org/2000/svg" xmlns:xlink="http://www.w3.org/1999/xlink" x="0px" y="0px"
	 viewBox="0 0 238 223" style="enable-background:new 0 0 238 223;" xml:space="preserve">
<style type="text/css">
	.st0{stroke:#000000;stroke-miterlimit:10;}
	.st1{fill:none;stroke:#000000;stroke-miterlimit:10;}
	.st2{fill:none;}
	.st3{fill:#E8CDDA;stroke:#000000;stroke-miterlimit:10;}
	.st4{enable-background:new    ;}
</style>
<g>
	<polygon class="st0" points="184.1,163.9 119.1,180.9 53.1,163.9 53.1,133.9 184.1,133.9 	"/>
	<circle id="_1" class="st1" cx="119" cy="111.5" r="102.5"/>
	<rect y="0" class="st2" width="238" height="223"/>
	<polyline class="st3" points="90,39.3 174.4,39.3 174.4,183.7 63.5,183.7 63.5,65.7 	"/>
	<polygon class="st3" points="89.1,64.8 63.5,64.8 89.1,39.3 	"/>
	<rect x="53.1" y="133.9" class="st3" width="131" height="30"/>
	<g class="st4">
		<path d="M95.5,155.9v-2.1h2.1v2.1H95.5z"/>
		<path d="M100.1,151.6l1.8-0.2c0,1.1,0.3,1.9,0.6,2.4s0.9,0.6,1.6,0.6c0.5,0,0.9-0.1,1.3-0.3c0.4-0.2,0.6-0.5,0.7-0.9
			c0.1-0.4,0.2-1,0.2-1.9v-10.4h2v10.2c0,1.3-0.2,2.2-0.5,2.9c-0.3,0.7-0.8,1.2-1.4,1.6c-0.7,0.4-1.4,0.5-2.3,0.5
			c-1.3,0-2.3-0.4-3-1.1C100.4,154.3,100.1,153.1,100.1,151.6z"/>
		<path d="M110.9,151.1l1.9-0.2c0.1,0.8,0.3,1.4,0.6,1.9c0.3,0.5,0.8,0.9,1.5,1.2c0.7,0.3,1.5,0.4,2.3,0.4c0.8,0,1.4-0.1,2-0.3
			c0.6-0.2,1-0.5,1.3-0.9c0.3-0.4,0.4-0.8,0.4-1.3c0-0.5-0.1-0.9-0.4-1.2s-0.7-0.6-1.4-0.9c-0.4-0.2-1.3-0.4-2.7-0.7
			c-1.4-0.3-2.3-0.6-2.9-0.9c-0.7-0.4-1.3-0.8-1.6-1.4c-0.4-0.6-0.5-1.2-0.5-1.9c0-0.8,0.2-1.5,0.6-2.1s1.1-1.2,1.9-1.5
			s1.7-0.5,2.8-0.5c1.1,0,2.1,0.2,2.9,0.5c0.9,0.4,1.5,0.9,2,1.6s0.7,1.5,0.7,2.4l-1.9,0.1c-0.1-0.9-0.4-1.7-1-2.2
			c-0.6-0.5-1.5-0.7-2.6-0.7c-1.2,0-2.1,0.2-2.6,0.7c-0.6,0.4-0.8,1-0.8,1.6c0,0.5,0.2,1,0.6,1.3c0.4,0.3,1.4,0.7,3,1.1
			c1.6,0.4,2.7,0.7,3.3,1c0.9,0.4,1.5,0.9,1.9,1.5s0.6,1.3,0.6,2.1c0,0.8-0.2,1.6-0.7,2.3c-0.5,0.7-1.1,1.3-2,1.7
			c-0.9,0.4-1.8,0.6-2.9,0.6c-1.4,0-2.5-0.2-3.4-0.6c-0.9-0.4-1.6-1-2.2-1.8C111.2,153,110.9,152.1,110.9,151.1z"/>
		<path d="M125,148.6c0-2.5,0.7-4.4,2-5.9c1.3-1.4,3.1-2.1,5.2-2.1c1.4,0,2.6,0.3,3.8,1c1.1,0.7,2,1.6,2.5,2.8
			c0.6,1.2,0.9,2.5,0.9,4c0,1.5-0.3,2.9-0.9,4.1s-1.5,2.1-2.6,2.7c-1.1,0.6-2.3,0.9-3.7,0.9c-1.4,0-2.7-0.3-3.8-1
			c-1.1-0.7-2-1.6-2.5-2.8C125.3,151.2,125,149.9,125,148.6z M127,148.6c0,1.8,0.5,3.2,1.5,4.3c1,1,2.2,1.6,3.7,1.6
			c1.5,0,2.7-0.5,3.7-1.6c1-1.1,1.5-2.5,1.5-4.5c0-1.2-0.2-2.3-0.6-3.2c-0.4-0.9-1-1.6-1.8-2.1c-0.8-0.5-1.7-0.8-2.7-0.8
			c-1.4,0-2.6,0.5-3.6,1.5C127.6,144.7,127,146.4,127,148.6z"/>
		<path d="M141.9,155.9v-15h2l7.9,11.8v-11.8h1.9v15h-2l-7.9-11.8v11.8H141.9z"/>
	</g>
</g>
</svg>
