<svg xmlns="http://www.w3.org/2000/svg" viewBox="0 0 94 127.15"><defs><style>.cls-1,.cls-2{fill:#fff;}.cls-1{opacity:0;}.cls-2{stroke:#000;stroke-miterlimit:10;}</style></defs><g id="Livello_2" data-name="Livello 2"><g id="Livello_1-2" data-name="Livello 1"><rect class="cls-1" width="94" height="127.15"/><path class="cls-2" d="M70.1,100.32,8.71,117.37c-1.88-11.11-.52-24.3-2.2-34.66-3-18.64-8-37.58,13.82-44.33h0c22.26-5.51,27.48,13.94,34.53,31.49C58.26,78.3,65.89,90.17,70.1,100.32Z"/><path class="cls-2" d="M79.86,87.38h0c-1.24,8.35-6.16,15.84-8.5,22.76h0L67.55,120h-41l-3.47-9.9,0,0c-2.17-6.93-6.76-14.42-7.92-22.78A27.65,27.65,0,0,1,15,83a40.18,40.18,0,0,1,.24-5.86H79.74A36.39,36.39,0,0,1,79.86,87.38Z"/></g></g></svg>