<?xml version="1.0" encoding="utf-8"?>
<!-- Generator: Adobe Illustrator 25.2.1, SVG Export Plug-In . SVG Version: 6.00 Build 0)  -->
<svg version="1.1" id="Livello_1" xmlns="http://www.w3.org/2000/svg" xmlns:xlink="http://www.w3.org/1999/xlink" x="0px" y="0px"
	 viewBox="0 0 238 223" style="enable-background:new 0 0 238 223;" xml:space="preserve">
<style type="text/css">
	.st0{stroke:#000000;stroke-miterlimit:10;}
	.st1{fill:none;stroke:#000000;stroke-miterlimit:10;}
	.st2{fill:none;}
	.st3{fill:#E8CDDA;stroke:#000000;stroke-miterlimit:10;}
	.st4{enable-background:new    ;}
</style>
<g>
	<polygon class="st0" points="184.1,163.9 119.1,180.9 53.1,163.9 53.1,133.9 184.1,133.9 	"/>
	<circle id="_1" class="st1" cx="119" cy="111.5" r="102.5"/>
	<rect y="0" class="st2" width="238" height="223"/>
	<polyline class="st3" points="90,39.3 174.4,39.3 174.4,183.7 63.5,183.7 63.5,65.7 	"/>
	<polygon class="st3" points="89.1,64.8 63.5,64.8 89.1,39.3 	"/>
	<rect x="53.1" y="133.9" class="st3" width="131" height="30"/>
	<g class="st4">
		<path d="M101.5,156.4v-2.1h2.1v2.1H101.5z"/>
		<path d="M107.1,156.4v-15h6.7c1.3,0,2.4,0.1,3.1,0.4c0.7,0.3,1.3,0.7,1.7,1.4c0.4,0.7,0.6,1.4,0.6,2.3c0,1.1-0.3,2-1,2.7
			c-0.7,0.7-1.8,1.2-3.2,1.4c0.5,0.3,0.9,0.5,1.2,0.7c0.6,0.5,1.1,1.2,1.7,2l2.6,4.1h-2.5l-2-3.1c-0.6-0.9-1.1-1.6-1.4-2.1
			c-0.4-0.5-0.7-0.8-1-1c-0.3-0.2-0.6-0.3-0.9-0.4c-0.2,0-0.6-0.1-1.1-0.1h-2.3v6.7H107.1z M109.1,148h4.3c0.9,0,1.6-0.1,2.1-0.3
			c0.5-0.2,0.9-0.5,1.2-0.9c0.3-0.4,0.4-0.9,0.4-1.3c0-0.7-0.3-1.3-0.8-1.8c-0.5-0.5-1.3-0.7-2.4-0.7h-4.8V148z"/>
		<path d="M122.2,156.4v-15h5.2c1.2,0,2.1,0.1,2.7,0.2c0.9,0.2,1.6,0.6,2.2,1.1c0.8,0.7,1.4,1.5,1.8,2.6c0.4,1,0.6,2.2,0.6,3.6
			c0,1.1-0.1,2.2-0.4,3c-0.3,0.9-0.6,1.6-1,2.2c-0.4,0.6-0.9,1-1.4,1.4c-0.5,0.3-1.1,0.6-1.8,0.8c-0.7,0.2-1.5,0.3-2.4,0.3H122.2z
			 M124.2,154.6h3.2c1,0,1.8-0.1,2.3-0.3c0.6-0.2,1-0.4,1.3-0.8c0.5-0.5,0.8-1.1,1.1-1.9c0.3-0.8,0.4-1.8,0.4-2.9
			c0-1.6-0.3-2.8-0.8-3.6c-0.5-0.8-1.1-1.4-1.9-1.7c-0.5-0.2-1.4-0.3-2.6-0.3h-3.2V154.6z"/>
		<path d="M137.5,156.4v-15h10.1v1.8h-8.2v4.7h7.1v1.8h-7.1v6.8H137.5z"/>
	</g>
</g>
</svg>
