<svg xmlns="http://www.w3.org/2000/svg" viewBox="0 0 301 201"><defs><style>.cls-1{fill:#c4ddda;}.cls-1,.cls-2{stroke:#000;stroke-miterlimit:10;}.cls-2{fill:#fff;}</style></defs><g id="Livello_2" data-name="Livello 2"><g id="Livello_1-2" data-name="Livello 1"><rect id="_13" data-name="13" class="cls-1" x="0.5" y="0.5" width="300" height="200"/><polygon id="_12" data-name="12" class="cls-2" points="150.5 23.84 148.04 31.47 139.94 31.47 146.52 36.22 143.99 43.84 150.5 39.11 157.01 43.84 154.52 36.16 161.06 31.51 152.99 31.51 150.5 23.84"/><polygon id="_11" data-name="11" class="cls-2" points="117.14 32.76 114.68 40.39 106.59 40.39 113.16 45.13 110.64 52.76 117.14 48.02 123.65 52.76 121.16 45.07 127.7 40.42 119.64 40.42 117.14 32.76"/><polygon id="_10" data-name="10" class="cls-2" points="183.86 32.76 181.4 40.39 173.3 40.39 179.87 45.13 177.35 52.76 183.86 48.02 190.36 52.76 187.87 45.07 194.41 40.42 186.35 40.42 183.86 32.76"/><polygon id="_9" data-name="9" class="cls-2" points="92.75 57.2 90.28 64.83 82.19 64.83 88.76 69.58 86.24 77.2 92.75 72.46 99.25 77.2 96.76 69.51 103.3 64.86 95.24 64.86 92.75 57.2"/><polygon id="_8" data-name="8" class="cls-2" points="208.23 57.2 205.77 64.83 197.68 64.83 204.25 69.58 201.72 77.2 208.23 72.46 214.74 77.2 212.25 69.51 218.79 64.86 210.72 64.86 208.23 57.2"/><polygon id="_7" data-name="7" class="cls-2" points="83.76 90.49 81.3 98.12 73.21 98.12 79.78 102.87 77.26 110.49 83.76 105.75 90.27 110.49 87.78 102.8 94.32 98.15 86.26 98.15 83.76 90.49"/><polygon id="_6" data-name="6" class="cls-2" points="217.24 90.49 214.77 98.12 206.68 98.12 213.25 102.87 210.73 110.49 217.24 105.75 223.74 110.49 221.25 102.8 227.79 98.15 219.73 98.15 217.24 90.49"/><polygon id="_5" data-name="5" class="cls-2" points="208.23 123.75 205.77 131.38 197.68 131.38 204.25 136.13 201.72 143.75 208.23 139.02 214.74 143.75 212.25 136.06 218.79 131.41 210.72 131.41 208.23 123.75"/><polygon id="_4" data-name="4" class="cls-2" points="92.75 123.75 90.28 131.38 82.19 131.38 88.76 136.13 86.24 143.75 92.75 139.02 99.25 143.75 96.76 136.06 103.3 131.41 95.24 131.41 92.75 123.75"/><polygon id="_3" data-name="3" class="cls-2" points="117.14 148.27 114.68 155.9 106.59 155.9 113.16 160.64 110.64 168.27 117.14 163.53 123.65 168.27 121.16 160.58 127.7 155.93 119.64 155.93 117.14 148.27"/><polygon id="_2" data-name="2" class="cls-2" points="183.86 148.27 181.4 155.9 173.3 155.9 179.87 160.64 177.35 168.27 183.86 163.53 190.36 168.27 187.87 160.58 194.41 155.93 186.35 155.93 183.86 148.27"/><polygon id="_1" data-name="1" class="cls-2" points="150.5 157.16 148.04 164.78 139.94 164.78 146.52 169.53 143.99 177.16 150.5 172.42 157.01 177.16 154.52 169.47 161.06 164.82 152.99 164.82 150.5 157.16"/></g></g></svg>