<svg xmlns="http://www.w3.org/2000/svg" viewBox="0 0 238 223"><defs><style>.cls-1{fill:#e8cdda;}.cls-1,.cls-2{stroke:#000;stroke-miterlimit:10;}.cls-2,.cls-3{fill:none;}</style></defs><g id="Livello_2" data-name="Livello 2"><g id="Livello_1-2" data-name="Livello 1"><path class="cls-1" d="M124.59,152.09l-12.9-20.74L90,140.59C96.09,141.14,120.8,149.75,124.59,152.09Z"/><path class="cls-1" d="M96.42,81.19l22.92,27.55,33.19-8.91a170.66,170.66,0,0,1-34.16-8.72A170.73,170.73,0,0,1,96.42,81.19Z"/><path class="cls-2" d="M196.5,111.5A77.5,77.5,0,1,1,119,34c2.16,0,4.3.08,6.41.26a77,77,0,0,1,24.1,6A75.7,75.7,0,0,1,158,44.55a77.5,77.5,0,0,1,38.46,67Z"/><rect class="cls-3" width="238" height="223"/><path class="cls-1" d="M160.92,175.09A76.79,76.79,0,1,1,116.76,34V47.53l14.42-11.89L138.07,30l-6.2-5L116.76,12.87V23.42a87.37,87.37,0,1,0,49.6,160.77C164.55,181.15,162.78,178.1,160.92,175.09Z"/><path class="cls-1" d="M194.71,121.32l-.15,1.12a60.94,60.94,0,0,1-2,8.66,40,40,0,0,1,8,2.06,68.23,68.23,0,0,0,2.16-9.47l.12-.85C200.13,122.3,197.42,121.78,194.71,121.32Z"/><path class="cls-1" d="M190.43,137.59a70.55,70.55,0,0,1-5.47,12.8c.88.45,1.76.92,2.64,1.4,1.94,1.06,3.88,2.17,5.77,3.36a79.83,79.83,0,0,0,6-13.88A32.58,32.58,0,0,0,190.43,137.59Z"/><path class="cls-1" d="M180.08,158.29a77.28,77.28,0,0,1-12,12.52,98.62,98.62,0,0,0,6.1,8.67,87.74,87.74,0,0,0,14.39-14.88A57.85,57.85,0,0,0,180.08,158.29Z"/><path class="cls-1" d="M127.15,111.61l.68-2.06,26.7-8.52,6.13-18.47,3.22,1.07,3.78-11.39L102.18,50.49,98.4,61.88l2.23.74-6.15,18.5,16.29,22.8-.68,2.06.14,0-.62,1.86L82.9,116.41,77,134.31l-2.84-.94-3.78,11.39,65.48,21.75,3.78-11.39-2.76-.91,6-18.2-16.29-22.8.54-1.61Zm8.63,24.68-5,15.92L83,136.31l5.46-15.43,26.34-8,1.65-5-.14-.05,1.58-4.76L101.58,80.85l5.06-16.24,48,16-5.65,16-26.35,8-1.49,4.51h0l-1.65,5Z"/><circle class="cls-1" cx="111.12" cy="131.43" r="1"/><circle class="cls-1" cx="112.69" cy="126.69" r="1"/><circle class="cls-1" cx="114.27" cy="121.94" r="1"/><circle class="cls-1" cx="115.85" cy="117.2" r="1"/><circle class="cls-1" cx="117.11" cy="113.4" r="1"/></g></g></svg>