<svg xmlns="http://www.w3.org/2000/svg" viewBox="0 0 301 201"><defs><style>.cls-1{fill:#e8cdda;}.cls-1,.cls-2{stroke:#000;stroke-miterlimit:10;}.cls-2{fill:#fff;}</style></defs><g id="Livello_2" data-name="Livello 2"><g id="Livello_1-2" data-name="Livello 1"><rect id="_6" data-name="6" class="cls-1" x="0.5" y="0.5" width="300" height="200"/><polygon id="_5" data-name="5" class="cls-2" points="50.5 20.5 68.13 74.77 21.97 41.23 79.03 41.23 32.87 74.77 50.5 20.5"/><polygon id="_4" data-name="4" class="cls-2" points="91.92 25.64 104.41 11.3 102.74 30.25 92.96 13.94 110.46 21.38 91.92 25.64"/><polygon id="_3" data-name="3" class="cls-2" points="110.6 41.91 127.68 33.54 118.79 50.35 116.1 31.52 129.34 45.17 110.6 41.91"/><polygon id="_2" data-name="2" class="cls-2" points="110.89 67.75 129.89 67.07 114.92 78.8 120.14 60.51 126.66 78.37 110.89 67.75"/><polygon id="_1" data-name="1" class="cls-2" points="92.69 84.25 110.49 90.96 92.15 96 104.03 81.14 103.14 100.14 92.69 84.25"/><polygon class="cls-2" points="50.55 61.96 33.1 74.64 39.77 54.12 22.31 41.44 43.88 41.44 50.55 20.91 57.22 41.44 78.8 41.44 61.34 54.12 68.01 74.64 50.55 61.96"/><polygon class="cls-2" points="99.06 23.89 91.18 25.71 96.49 19.61 92.33 12.68 99.77 15.85 105.07 9.75 104.36 17.8 111.8 20.96 103.92 22.77 103.21 30.82 99.06 23.89"/><polygon class="cls-2" points="117.21 43.58 109.25 42.23 116.48 38.64 115.3 30.65 120.96 36.42 128.19 32.83 124.45 39.99 130.1 45.76 122.14 44.41 118.39 51.57 117.21 43.58"/><polygon class="cls-2" points="116.87 71.97 110.11 67.55 118.18 67.16 120.31 59.36 123.17 66.91 131.24 66.52 124.94 71.58 127.81 79.14 121.05 74.71 114.75 79.77 116.87 71.97"/><polygon class="cls-2" points="96.22 89.88 91.89 83.06 99.4 86.04 104.56 79.81 104.05 87.88 111.56 90.86 103.73 92.86 103.22 100.93 98.89 94.1 91.07 96.11 96.22 89.88"/></g></g></svg>