<svg xmlns="http://www.w3.org/2000/svg" viewBox="0 0 238 223"><defs><style>.cls-1,.cls-2{fill:none;}.cls-1,.cls-3{stroke:#000;stroke-miterlimit:10;}.cls-3{fill:#c4ddda;}</style></defs><g id="Livello_2" data-name="Livello 2"><g id="Livello_1-2" data-name="Livello 1"><circle id="_1" data-name="1" class="cls-1" cx="119" cy="111.5" r="102.5"/><rect class="cls-2" width="238" height="223"/><rect class="cls-3" x="62.15" y="21.13" width="126" height="164"/><rect class="cls-3" x="55.15" y="30.13" width="126" height="164"/><polyline class="cls-3" points="78.15 37.13 174.15 37.13 174.15 201.13 48.15 201.13 48.15 67.13"/><polygon class="cls-3" points="77.15 66.13 48.15 66.13 77.15 37.13 77.15 66.13"/><line class="cls-3" x1="71.15" y1="82.13" x2="152.56" y2="82.13"/><line class="cls-3" x1="70.67" y1="98.23" x2="152.07" y2="98.23"/><line class="cls-3" x1="70.91" y1="115.18" x2="152.32" y2="115.18"/><line class="cls-3" x1="70.42" y1="131.28" x2="151.83" y2="131.28"/><line class="cls-3" x1="70.67" y1="147.23" x2="119.65" y2="147.23"/><path class="cls-3" d="M143.82,175.8l6,5.27c-4.06,3.61-8.06,4.87-9.2,3.76S140.62,179.84,143.82,175.8Z"/><path class="cls-3" d="M149.56,182.15l-6.78-5.92,57.27-65.5a4.65,4.65,0,0,1,5.64-.38,4.7,4.7,0,0,1,1.13,6.3Z"/><line class="cls-3" x1="175.65" y1="138.63" x2="182.43" y2="144.55"/><line class="cls-3" x1="159.89" y1="156.66" x2="166.67" y2="162.58"/><path class="cls-3" d="M189.14,127.76a2,2,0,0,1-3-2.63l14.48-16.57a2.61,2.61,0,0,1,2.16.57,2.59,2.59,0,0,1,.85,2.07Z"/></g></g></svg>