<svg xmlns="http://www.w3.org/2000/svg" viewBox="0 0 66.21 624.69"><defs><style>.cls-1,.cls-2{fill:#fff;stroke:#000;stroke-miterlimit:10;}.cls-2{fill-rule:evenodd;}</style></defs><g id="Livello_2" data-name="Livello 2"><g id="Livello_1-2" data-name="Livello 1"><path class="cls-1" d="M33.9,0V624.69"/><path class="cls-2" d="M24,585.91h0c.33,2.34,1.61,4.44,2.23,6.39h0l1,2.78H38.71l1-2.78h0c.65-1.94,2-4,2.38-6.38h0c.53-3.12-1.5-8.84-1.88-12.27-.59-5.29-.54-11-7.05-11.14h0c-6.5.18-6.56,5.7-7.15,11-.39,3.45-2.22,7.65-2.1,11.2A8.4,8.4,0,0,0,24,585.91Z"/><path class="cls-1" d="M.63,128.93h0c1.16,8.36,5.75,15.85,7.93,22.78l0,0,3.47,9.91H32.17v0H53.09l3.72-9.9h0c2.33-6.92,7.25-14.41,8.5-22.76h0c1.87-11.12-5.36-31.51-6.72-43.74-2.11-18.84-1.93-39-25.14-39.69h0C10.36,46.15,10.14,65.8,8,84.62,6.66,96.94.1,111.92.56,124.56A26.51,26.51,0,0,0,.63,128.93Z"/><path class="cls-1" d="M8.77,398.16h0c.86,6.26,4.3,11.88,5.93,17.07h0l2.6,7.42H48.08l2.79-7.42h0c1.75-5.19,5.44-10.8,6.37-17.06h0c1.41-8.33-4-23.61-5-32.77-1.58-14.13-1.45-29.26-18.84-29.75h0c-17.36.49-17.53,15.22-19.1,29.32-1,9.23-5.94,20.46-5.6,29.93A19.79,19.79,0,0,0,8.77,398.16Z"/><path class="cls-2" d="M15.93,506h0c.62,4.43,3,8.39,4.2,12h0L22,523.27h21.7l2-5.23h0c1.23-3.66,3.83-7.62,4.49-12h0c1-5.88-2.84-16.66-3.56-23.13-1.12-10-1-20.65-13.29-21h0c-12.25.34-12.37,10.73-13.48,20.69-.73,6.52-4.2,14.44-4,21.12A14.79,14.79,0,0,0,15.93,506Z"/><path class="cls-1" d="M6.35,269.47h0c1,6.89,4.83,13,6.66,18.74h0L16,296.34l16.58-.11h0l17.25-.12,3-8.18h0c1.89-5.72,5.91-11.92,6.89-18.82h0c1.48-9.18-4.59-25.94-5.78-36C52.12,217.56,52.16,200.91,33,200.5h0c-19.1.67-19.18,16.87-20.8,32.4-1.07,10.17-6.39,22.55-6,33A22.67,22.67,0,0,0,6.35,269.47Z"/></g></g></svg>