<svg xmlns="http://www.w3.org/2000/svg" viewBox="0 0 1366 768"><defs><style>.cls-1{fill:#fff;}</style></defs><g id="Livello_2" data-name="Livello 2"><g id="Livello_1-2" data-name="Livello 1"><path class="cls-1" d="M0,0V768H1366V0ZM743.25,509.51c-1.75,25.52-55,50.22-103.85,50-39.49-.19-44.64-16.51-99.56-27.61-60-12.12-74.19,3.27-124.23-6.15C347.35,512.88,303.56,471,294,461.89c-58.7-56.09-23.33-87.39-80.52-165.73C166.25,231.47,111.93,211.42,119.91,170c3.07-15.93,14.9-32.61,32.4-41.21,41.75-20.52,82.29,21.44,162.19,34.37C423.76,180.85,466,121.47,523.66,152.47c48.62,26.15,24.62,71.67,87.72,117.62,50,36.43,87.15,23.88,102.55,53.92,21.36,41.7-42.19,81.38-18.86,130.79C710,486.42,744.69,488.52,743.25,509.51ZM1093.39,354.8c-31.21,18.93-60.52,36.71-100.46,26-21.71-5.81-59.84-23.59-68.57-53.38-5.74-19.6,2.18-41.25,19.14-48.93,23.7-10.73,47.78,13.67,69.77,3.46,19.28-9,6.93-30.56,26.36-55.69,13.93-18,45-38.84,79.36-27.46,23,7.59,45.53,28.92,52.71,51.12C1187.22,297.88,1126.2,334.9,1093.39,354.8Z"/></g></g></svg>