<svg xmlns="http://www.w3.org/2000/svg" viewBox="0 0 238 223"><defs><style>.cls-1,.cls-2{fill:none;}.cls-2,.cls-3,.cls-4{stroke:#000;stroke-miterlimit:10;}.cls-3{fill:#c4ddda;}.cls-4{fill:#fff;}</style></defs><g id="Livello_2" data-name="Livello 2"><g id="Livello_1-2" data-name="Livello 1"><rect class="cls-1" width="238" height="223"/><circle id="_1" data-name="1" class="cls-2" cx="119" cy="111.5" r="102.5"/><path class="cls-3" d="M181.09,75.55v94.32h-128V75.55h7.72V67.1A7.1,7.1,0,0,1,68,60h33.59a7.1,7.1,0,0,1,7.1,7.1v8.45Z"/><polyline class="cls-4" points="138.07 165 85 165 85 74.33 154.65 74.33 154.65 148.41"/><polyline class="cls-4" points="144.81 168.12 91.73 168.12 91.73 77.45 161.39 77.45 161.39 151.54"/><rect class="cls-4" x="99.5" y="80.4" width="73.1" height="44.23"/><polygon class="cls-3" points="201.81 87.59 64.83 87.59 54.12 170 191.1 170 201.81 87.59"/></g></g></svg>