<?xml version="1.0" encoding="utf-8"?>
<!-- Generator: Adobe Illustrator 25.2.1, SVG Export Plug-In . SVG Version: 6.00 Build 0)  -->
<svg version="1.1" id="Livello_1" xmlns="http://www.w3.org/2000/svg" xmlns:xlink="http://www.w3.org/1999/xlink" x="0px" y="0px"
	 viewBox="0 0 102.9 322.2" style="enable-background:new 0 0 102.9 322.2;" xml:space="preserve">
<style type="text/css">
	.st0{stroke:#000000;stroke-width:2;stroke-miterlimit:10;}
	.st1{fill:#E8CDDA;stroke:#000000;stroke-width:2;stroke-miterlimit:10;}
</style>
<g id="Livello_2_2_">
	<g id="Capa_1_1_">
		<path class="st0" d="M26,26.3c-5.3,5.9-8.2,14.2-8.1,22.9l5,239.6c0.2,10.5,8.4,18.8,18.3,18.5c4.7-0.1,9.3-2.3,12.7-6.2
			c3.1-3.5,4.8-8.3,4.8-13.4l-3.5-166.9c-0.1-4.1,2.7-7.6,6.1-7.7c3.5-0.1,6.4,3.2,6.5,7.3l3.5,166.9c0.2,9.3-2.9,18.2-8.6,24.5
			c-5.7,6.5-13.3,10.2-21.2,10.4c-16.7,0.5-30.8-14.3-31.2-33.1l-5-239.5C5.1,37.4,8.9,25.7,16,17c0.4-0.5,0.8-1,1.2-1.5
			C25.2,6.4,35.8,1.2,46.8,1c11.2-0.4,22,4.1,30.3,12.8c5.4,5.5,9.4,12.5,11.5,20.4H74.9C70,23.1,59.3,15.6,47.1,16
			C39.3,16.1,31.7,19.8,26,26.3z"/>
	</g>
</g>
<g id="Livello_2_1_">
	<g id="Capa_1">
		<path class="st1" d="M24.2,25.8C18.9,31.7,16,40,16.1,48.7l5,239.6c0.2,10.5,8.4,18.8,18.3,18.5c4.7-0.1,9.3-2.3,12.7-6.2
			c3.1-3.5,4.8-8.3,4.8-13.4l-3.5-166.9c-0.1-4.1,2.7-7.6,6.1-7.7c3.5-0.1,6.4,3.2,6.5,7.3l3.5,166.9c0.2,9.3-2.9,18.2-8.6,24.5
			c-5.7,6.5-13.3,10.2-21.2,10.4C23,322.2,8.9,307.4,8.5,288.6l-5-239.5C3.3,36.9,7.1,25.2,14.2,16.5c0.4-0.5,0.8-1,1.2-1.5
			C23.4,5.9,34,0.7,45,0.5c11.2-0.4,22,4.1,30.3,12.8c5.4,5.5,9.4,12.5,11.5,20.4H73.1c-4.9-11.1-15.6-18.6-27.8-18.2
			C37.5,15.6,29.9,19.3,24.2,25.8z"/>
	</g>
</g>
</svg>
