<?xml version="1.0" encoding="utf-8"?>
<!-- Generator: Adobe Illustrator 25.2.1, SVG Export Plug-In . SVG Version: 6.00 Build 0)  -->
<svg version="1.1" id="Livello_1" xmlns="http://www.w3.org/2000/svg" xmlns:xlink="http://www.w3.org/1999/xlink" x="0px" y="0px"
	 viewBox="0 0 506.4 322.2" style="enable-background:new 0 0 506.4 322.2;" xml:space="preserve">
<style type="text/css">
	.st0{opacity:0.75;}
	.st1{fill:#E8CCDA;stroke:#000000;stroke-miterlimit:10;}
</style>
<g class="st0">
	<polygon points="441.1,116.5 446.3,111.1 441.8,106.7 445.7,103.4 429.8,103.4 425.7,103.4 93.3,103.4 89.3,103.4 73.4,103.4 
		77.3,106.7 72.8,111.1 78,116.5 73.4,120.8 77.5,124.8 73.4,129.1 77.5,132.4 73.4,136.9 77.5,141.4 73.4,144.6 77.5,148.9 
		73.4,153 78,157.3 73.4,161.2 78.7,164.6 75.3,168.4 75.1,168.4 79.3,172.9 75.1,176.1 79.3,180.4 75.1,184.5 79.8,188.8 
		75.1,192.7 80.5,196.1 77,200 80.5,201.5 76.4,206.8 81.2,206.8 89.3,206.8 93.3,206.8 95.4,206.8 423.7,206.8 425.7,206.8 
		429.8,206.8 437.8,206.8 442.6,206.8 438.6,201.5 442.1,200 438.6,196.1 443.9,192.7 439.3,188.8 443.9,184.5 439.7,180.4 
		443.9,176.1 439.7,172.9 443.9,168.4 443.8,168.4 440.4,164.6 445.7,161.2 441.1,157.3 445.7,153 441.5,148.9 445.7,144.6 
		441.5,141.4 445.7,136.9 441.5,132.4 445.7,129.1 441.5,124.8 445.7,120.8 	"/>
	<polygon class="st1" points="438.5,116.1 443.7,110.8 439.2,106.5 443.1,103.2 427.1,103.2 423,103.2 88.1,103.2 84,103.2 
		68,103.2 72,106.5 67.4,110.8 72.7,116.1 68,120.3 72.2,124.3 68,128.6 72.2,131.7 68,136.2 72.2,140.6 68,143.8 72.2,148 68,152 
		72.7,156.3 68,160.1 73.4,163.4 69.9,167.2 69.8,167.2 74,171.6 69.8,174.8 74,179 69.8,183 74.5,187.3 69.8,191.1 75.2,194.4 
		71.7,198.2 75.2,199.7 71.1,205 75.9,205 84,205 88.1,205 90.2,205 421,205 423,205 427.1,205 435.2,205 440.1,205 436,199.7 
		439.5,198.2 436,194.4 441.3,191.1 436.7,187.3 441.3,183 437.1,179 441.3,174.8 437.1,171.6 441.3,167.2 441.2,167.2 437.8,163.4 
		443.1,160.1 438.5,156.3 443.1,152 438.9,148 443.1,143.8 438.9,140.6 443.1,136.2 438.9,131.7 443.1,128.6 438.9,124.3 
		443.1,120.3 	"/>
</g>
</svg>
